<?xml version="1.0" standalone="no"?>
<!DOCTYPE svg PUBLIC "-//W3C//DTD SVG 1.1//EN" "http://www.w3.org/Graphics/SVG/1.1/DTD/svg11.dtd" >
<svg xmlns="http://www.w3.org/2000/svg" xmlns:xlink="http://www.w3.org/1999/xlink" version="1.1">
<metadata>
Created by FontForge 20160405 at Wed May 17 00:33:17 2017
 By www-data
Copyright (c) 2006 by Kimberly Geswein. All rights reserved.
</metadata>
<defs>
<font id="LovedbytheKing" horiz-adv-x="647" >
  <font-face 
    font-family="Loved by the King"
    font-weight="400"
    font-stretch="normal"
    units-per-em="2048"
    panose-1="2 0 0 0 0 0 0 0 0 0"
    ascent="1638"
    descent="-410"
    x-height="1022"
    cap-height="1614"
    bbox="-330 -1024 1649 2157"
    underline-thickness="154"
    underline-position="-454"
    unicode-range="U+0020-FB02"
  />
<missing-glyph horiz-adv-x="1434" 
 />
    <glyph glyph-name=".notdef" horiz-adv-x="1434" 
 />
    <glyph glyph-name=".null" horiz-adv-x="0" 
 />
    <glyph glyph-name="nonmarkingreturn" horiz-adv-x="682" 
 />
    <glyph glyph-name="space" unicode=" " horiz-adv-x="1049" 
 />
    <glyph glyph-name="exclam" unicode="!" horiz-adv-x="524" 
d="M190 1907l97 -56v-1265l-15 -19h-26q-56 39 -56 551v789zM231 219q88 -37 97 -92v-53q-27 -74 -68 -74q-84 0 -110 109q0 55 81 110z" />
    <glyph glyph-name="quotedbl" unicode="&#x22;" horiz-adv-x="670" 
d="M174 1704q74 0 94 -55q-39 -359 -67 -359h-27q-43 0 -43 289v43q8 82 43 82zM451 1622q55 -20 55 -43q-72 -147 -84 -373l-14 -14h-13q-55 0 -55 166q27 264 111 264z" />
    <glyph glyph-name="numbersign" unicode="#" horiz-adv-x="1317" 
d="M836 1425l55 -41l-14 -124l28 -236l166 14l55 -41v-55l-221 -29v-125l13 -233h43q116 0 178 27l55 -41l-276 -97l-13 -110l13 -111q-19 -98 -56 -98h-26l-15 14l-14 41h-12l26 236l-26 28l-99 -14h-67v-84q0 -72 -43 -82h-41q-27 0 -41 166l-96 -14h-166q-68 0 -111 69
q0 37 68 70q104 -43 305 -43l26 111v180l-26 28q-92 -28 -402 -43q-55 15 -55 84l55 41l140 -14h123q153 0 153 84l12 82l-26 209q20 55 41 55h28q27 0 27 -43l14 -332h56q137 19 137 56v28l-27 359zM614 817v-69q0 -222 41 -222h140l26 29v27l-14 305h-12
q-181 -21 -181 -70z" />
    <glyph glyph-name="dollar" unicode="$" horiz-adv-x="901" 
d="M231 1815q70 -19 70 -41v-56q-14 -198 84 -198q387 -93 387 -359l-14 -43h-41q0 191 -291 320h-55l-13 -15v-14q0 -350 205 -483q238 -244 238 -457q0 -111 -209 -207l-68 -14v-82q13 -94 39 -98q-24 -62 -55 -68h-12q-64 0 -82 248q-293 147 -293 387q35 250 84 250h14
l12 -43q-26 -54 -26 -152v-110q57 -193 180 -193v12q-45 762 -166 762l-98 152v41q0 69 127 151l-58 281zM219 1354v-27l68 -84h16l-29 139h-26zM426 911v-26q45 -527 82 -527h29q153 33 153 140v41q0 168 -237 372h-27z" />
    <glyph glyph-name="percent" unicode="%" horiz-adv-x="752" 
d="M573 1790h31v-37q-104 -792 -317 -1532q-29 0 -29 -172l-47 -39l-74 21v75q219 558 361 1493q0 134 75 191zM508 203h41l55 -56q0 -36 -67 -67q-58 18 -84 67zM193 1706h43l55 -55q0 -37 -70 -70q-57 21 -84 70z" />
    <glyph glyph-name="ampersand" unicode="&#x26;" horiz-adv-x="1061" 
d="M418 1667q166 -61 166 -248q0 -295 -111 -692q0 -76 84 -332h41q88 0 96 361q0 49 -123 82v55l111 29l123 -13h84l96 13l14 -13v-55l-221 -55v-154q0 -399 -387 -399h-139q-123 0 -123 82q248 250 248 415l-111 691v67q37 166 152 166zM362 1419q33 -454 84 -454
q31 39 56 331q0 195 -70 248q-51 0 -70 -125zM322 369v-13h124v111l-14 68h-26q-37 0 -84 -166z" />
    <glyph glyph-name="quotesingle" unicode="'" horiz-adv-x="358" 
d="M246 1550q-101 -344 -129 -374h-11l-32 43q0 57 32 110q50 303 87 303q53 -26 53 -82z" />
    <glyph glyph-name="parenleft" unicode="(" horiz-adv-x="629" 
d="M295 1927v-12q0 -39 -123 -248l-43 -332v-182q0 -487 291 -1034l12 -17l43 -26l111 69l12 -14v-12q-18 -127 -111 -127q-286 0 -442 1161v195q0 430 221 579h29z" />
    <glyph glyph-name="parenright" unicode=")" horiz-adv-x="569" 
d="M129 1821q80 0 96 -207q303 -653 303 -1077q-106 -527 -276 -527l-41 15v41q221 163 221 497v55q0 369 -317 1051l-41 55q0 60 55 97z" />
    <glyph glyph-name="asterisk" unicode="*" horiz-adv-x="895" 
d="M553 1458h68q30 -8 55 -69q-55 -162 -55 -250v-27q0 -29 165 -41l43 -55v-29q0 -31 -221 -82l-14 -69v-222l41 -180q-8 -69 -82 -69h-14q-29 8 -56 69l15 96q-43 70 -56 209l-14 13h-14q-23 0 -277 -289q-69 12 -69 67l221 527v41l-68 125q2 71 55 110l13 -14
q33 0 69 -96h15q51 0 180 235zM483 1182l27 -29h14v55h-14zM428 1042v-14q8 -82 41 -82h29l12 70l-41 26h-41zM289 807q84 0 84 84v27h-29q-35 0 -55 -111z" />
    <glyph glyph-name="plus" unicode="+" horiz-adv-x="1032" 
d="M455 1155l55 -27l-12 -165v-111q0 -29 41 -29l276 29l27 -43v-12q0 -39 -318 -70v-14l56 -387q-19 -70 -41 -70h-29q-96 66 -85 268.5t-26 202.5l-288 -29l-29 43v41q0 27 166 27h84l67 14v140l-12 81q19 74 68 111z" />
    <glyph glyph-name="comma" unicode="," horiz-adv-x="524" 
d="M264 397q25 0 82 -67q-76 -746 -166 -746h-12q-29 0 -29 39q97 397 97 570l-13 149l41 43v12z" />
    <glyph glyph-name="hyphen" unicode="-" horiz-adv-x="827" 
d="M696 897h13l43 -41v-41q-371 -41 -596 -96l-56 41v69z" />
    <glyph glyph-name="hyphen" unicode="&#xad;" horiz-adv-x="827" 
d="M696 897h13l43 -41v-41q-371 -41 -596 -96l-56 41v69z" />
    <glyph glyph-name="period" unicode="." horiz-adv-x="524" 
d="M242 174h43l57 -78q0 -51 -74 -96q-57 27 -86 96z" />
    <glyph glyph-name="slash" unicode="/" horiz-adv-x="713" 
d="M563 1485h29v-27q-139 -766 -332 -1300q-29 0 -29 -125l-38 -27l-72 14v56q201 401 375 1272q0 96 67 137z" />
    <glyph glyph-name="zero" unicode="0" horiz-adv-x="690" 
d="M266 1499q266 57 352 -563q0 -823 -276 -954h-12q-246 0 -291 634v72q-37 737 227 811zM121 866v-110q0 -514 153 -664h29q199 0 234 746q0 465 -152 540l-55 29q-172 -39 -209 -541z" />
    <glyph glyph-name="one" unicode="1" horiz-adv-x="451" 
d="M102 1604h43l56 -56l-27 -84v-82q0 -165 166 -1175l39 -41v-14q0 -117 -82 -152q-49 0 -84 41l16 82q0 217 -166 1452z" />
    <glyph glyph-name="two" unicode="2" horiz-adv-x="651" 
d="M285 1571q110 -35 110 -320q-69 -727 -166 -1118q146 17 303 193h15l41 -41q0 -166 -373 -291l-111 29v12q277 1339 152 1370q-80 0 -96 -387l-41 -29q-37 0 -84 84q41 213 114.5 353.5t135.5 144.5z" />
    <glyph glyph-name="three" unicode="3" horiz-adv-x="709" 
d="M358 1446q70 -21 70 -96q0 -84 -96 -443h67q236 0 236 -250q0 -315 -457 -634q-67 8 -67 69h-15q27 64 56 68l41 -13q346 259 346 539q0 51 -97 125q-178 0 -249 -221l-41 -43h-29q-27 8 -55 69q249 426 249 609v55l-14 14v15q-98 0 -125 -250l15 -15q0 -40 -82 -81
q-43 10 -56 55q103 428 303 428z" />
    <glyph glyph-name="four" unicode="4" horiz-adv-x="594" 
d="M414 1653q32 0 41 -70l-27 -276v-621h14q111 -29 -28 -166v-153l-15 -222l43 -67q-28 -84 -55 -84h-29q-55 29 -55 84l19 420l-199 -21l-55 43q14 838 -13 912q23 69 68 69q37 0 70 -69l-27 -82l12 -719l43 -43h68l43 43q0 1022 82 1022z" />
    <glyph glyph-name="five" unicode="5" horiz-adv-x="633" 
d="M662 1628l28 -29v-14q-74 -119 -485 -250q-68 -133 -68 -454l13 -125h14l151 26h15q221 0 262 -331v-13q-164 -336 -309.5 -389t-216.5 98v27l16 16v13q27 0 111 -103q194 43 303 351v28q-25 209 -166 209q-49 0 -221 -84q-46 0 -47 380t59 380q0 98 110 98
q109 0 431 166z" />
    <glyph glyph-name="six" unicode="6" horiz-adv-x="633" 
d="M164 1554h29q30 0 40 -71q-81 -117 -81 -260v-250q0 -228 41 -541h26q41 442 291 442q70 -34 70 -110v-193q0 -446 -207 -565l-70 -29q-235 0 -235 1008v98q0 471 96 471zM303 393l14 -71l-14 -95q10 -71 41 -71h41q84 0 111 403v111q0 71 -41 82h-15q-94 0 -137 -359z
" />
    <glyph glyph-name="seven" unicode="7" horiz-adv-x="741" 
d="M575 1323h41l41 -41v-14q-55 -109 -82 -774h15l-15 -13v-28l15 -41l-15 -70v-192l56 -56q-27 -110 -111 -110q-37 0 -69 67q36 258 69 1106h-14l-248 -41l-43 14l-111 -14q-81 29 -81 55v29l55 55q55 -28 151 -28h29q188 0 317 96z" />
    <glyph glyph-name="eight" unicode="8" horiz-adv-x="621" 
d="M524 1581q56 -14 56 -82v-72q-222 -645 -222 -731q111 -198 152 -374q-64 -316 -262 -316q-111 0 -111 166l111 510q-129 231 -180 512q0 219 401 344l14 16zM178 1180v-13q0 -217 98 -319h27l139 469v98h-14q-250 -61 -250 -235zM233 143l29 -26q121 0 137 178v55
q0 99 -82 209q-65 -49 -84 -416z" />
    <glyph glyph-name="nine" unicode="9" horiz-adv-x="713" 
d="M600 1473h29q41 0 41 -56q-70 -168 -70 -635h14l-14 -14v-553l41 -166l-55 -55q-56 0 -97 84l15 96v41l14 442l-14 84l14 166v27h-29q-116 -152 -262 -152q-194 0 -194 236q139 428 430 428l67 -14zM143 948q43 -69 99 -69q174 0 276 372v29q-14 41 -84 41h-82
q-125 -45 -209 -248v-125z" />
    <glyph glyph-name="colon" unicode=":" horiz-adv-x="524" 
d="M236 1042q67 -18 67 -94v-16l-39 -39h-16q-66 0 -111 68q4 43 99 81zM264 629q68 -17 68 -41v-43l-68 -56q-71 19 -71 43q0 78 71 97z" />
    <glyph glyph-name="semicolon" unicode=";" horiz-adv-x="524" 
d="M215 817q84 -31 84 -110l-43 -43q-111 43 -111 81q0 37 70 72zM285 332l69 -41l-14 -55l14 -236q-51 -637 -250 -637v-12q-55 20 -55 41q221 151 221 706l-26 178l41 43v13z" />
    <glyph glyph-name="less" unicode="&#x3c;" horiz-adv-x="821" 
d="M643 1044q55 -12 55 -55q0 -24 -358 -303l-14 -70l372 -247v-43l-41 -41q-39 0 -331 207q-39 28 -181 43l-26 55q0 67 137 110q80 119 387 344z" />
    <glyph glyph-name="equal" unicode="=" horiz-adv-x="1102" 
d="M782 655h15l41 -41v-41q-371 -43 -594 -98l-56 43v68zM805 428h14l41 -43v-41q-371 -41 -594 -96l-55 41v69z" />
    <glyph glyph-name="greater" unicode="&#x3e;" horiz-adv-x="1102" 
d="M133 1243q41 0 234 -205q319 -139 319 -264q0 -67 -319 -317q0 -31 -97 -70l-96 27v55q0 47 180 98q207 150 207 234l-483 332v55q0 37 55 43v12z" />
    <glyph glyph-name="question" unicode="?" horiz-adv-x="668" 
d="M440 1778h29q125 0 125 -209q0 -109 -209 -553l-41 -152v-137q8 -192 41 -209q-18 -57 -68 -84h-14q-29 8 -55 72l14 82q0 274 -84 373q0 55 166 165q139 263 139 347v96l-43 43q-39 0 -96 -221l-41 -29l-55 41q100 375 192 375zM344 213h41q55 -27 55 -82t-82 -55v-13
q-57 19 -84 68v14z" />
    <glyph glyph-name="at" unicode="@" horiz-adv-x="1061" 
d="M664 1430q229 0 378 -613q0 -813 -475 -942h-22q-520 -29 -500 629v67q0 719 477 832q142 0 142 27zM188 754q-106 -744 263 -764h47q176 0 280 200q-24 -14 -55 -24h-55q-56 0 -56 102q-401 -268 -373.5 255.5t246.5 609.5q0 28 66 26h41l43 -26l-8 -125
q37 -732 123 -732l71 21q58 168 80 430q0 459 -356 557q-297 -37 -357 -530zM545 387l10 422q-35 365 -158 27q-153 -652 148 -449z" />
    <glyph glyph-name="A" unicode="A" horiz-adv-x="788" 
d="M541 1700q149 -4 155 -1376l43 -443l-69 -12h-29l-41 41v512l-14 207h-13q-331 -41 -362 -140q-53 -503 -80 -509h-55l-56 55q68 526 222 1161q106 524 299 504zM256 725l68 -53q276 61 276 94v250l14 180l-34 139q-39 166 -82 166q-88 0 -242 -776z" />
    <glyph glyph-name="B" unicode="B" horiz-adv-x="735" 
d="M209 1808q70 -43 70 -110h12q127 80 235 96q119 0 152 -180q0 -113 -211 -447v-16l123 16q102 0 153 -221q0 -284 -288 -637q-176 -231 -359 -413h-41q-43 12 -43 81q84 230 80 859l-41 38v17l41 110q6 807 76 807h41zM209 1477l-19 -353v-67h39q332 334 338 557
q-24 63 -55 69q-139 0 -303 -206zM190 807v-43l-12 -580h15q176 0 411 541l29 111q0 221 -111 221q-332 -121 -332 -250z" />
    <glyph glyph-name="C" unicode="C" horiz-adv-x="731" 
d="M653 1741q84 -29 84 -55v-29q0 -27 -125 -27q-235 -123 -321 -401q-158 -314 -158 -701v-14q27 -414 193 -414l43 -14h82q79 35 180 332h41v-15q-72 -428 -248 -428q-234 0 -375 347l-12 137q0 598 325 1061q181 221 291 221z" />
    <glyph glyph-name="D" unicode="D" horiz-adv-x="731" 
d="M258 1769q100 -139 193 -139q276 -151 276 -456q39 -463 -569 -1111q-21 -137 -82 -137q-56 0 -56 68h-12l82 346q29 424 57 1098v151q0 180 111 180zM174 244h12q240 143 418 653l29 236v84q-53 344 -305 344q-99 0 -99 -193z" />
    <glyph glyph-name="E" unicode="E" horiz-adv-x="735" 
d="M469 1741q70 -19 70 -43v-41q0 -43 -320 -103l-10 -483v-70q0 -28 39 -28l264 28l12 -14v-14q0 -55 -315 -111l-55 -608v-27q0 -151 110 -151l371 151l24 -84q19 -20 -438 -178q-135 0 -178 277l68 594l-41 69q55 105 55 166l-14 350q0 138 -29 138q0 110 387 182z" />
    <glyph glyph-name="F" unicode="F" horiz-adv-x="549" 
d="M686 1851l41 -55v-12q0 -37 -262 -70q-195 -61 -195 -250l-14 -303l14 -41l277 68l28 -27v-28q0 -31 -208 -68q0 -27 -82 -43q-37 0 -111 -813l-14 -98v-140l-82 -55l-70 55q152 523 152 969q-97 31 -97 70q0 32 97 84l14 55v260l14 221l-43 72q0 39 99 94l12 -12h139
q215 67 291 67z" />
    <glyph glyph-name="G" unicode="G" horiz-adv-x="784" 
d="M676 1737q69 -17 69 -41v-43q-421 0 -503 -391q-111 -353 -111 -541v-277q55 -399 236 -399q165 277 165 647v72q0 160 -165 221l-15 39q0 98 277 111q37 0 69 -68l-98 -111l29 -180q-68 -842 -277 -842q-317 146 -317 537v111q0 589 282 1003q168 152 359 152z" />
    <glyph glyph-name="H" unicode="H" horiz-adv-x="770" 
d="M254 1698h12l56 -56v-28q-74 0 -140 -785l43 -14q332 25 332 55q31 744 84 744l41 16q70 -18 70 -43q-82 -143 -113 -882q-18 -760 -96 -760h-15l-41 41l41 401h-14l14 12v140l15 206l-15 15q-372 -27 -372 -111l-56 -622v-82l-55 -43q-41 0 -41 55h-14l82 733l-27 84
q66 0 98 647q62 277 111 277z" />
    <glyph glyph-name="I" unicode="I" horiz-adv-x="336" 
d="M262 1614q78 45 50.5 -158t-84 -549t-56.5 -757l27 -84v-27l-68 -55q-59 0 -84 98q29 33 87.5 775t98.5 742h29v15z" />
    <glyph glyph-name="J" unicode="J" horiz-adv-x="592" 
d="M518 1774h27l-15 -152l-4 -725q-32 -870 -235 -870q0 -27 -123 -27q-139 25 -139 193l14 55h41q33 -152 84 -152h82q164 0 194 844v12l5 670q26 152 69 152z" />
    <glyph glyph-name="K" unicode="K" horiz-adv-x="696" 
d="M184 1686q45 -15 56 -56l-29 -207v-718h41q332 581 332 800q59 56 110 56l56 -70q-97 -133 -443 -885v-41q119 -512 320 -512v-55l-70 -12q-166 0 -332 483h-14l-70 -594l-12 -14h-55q-35 0 -43 55q49 0 98 967l-14 762z" />
    <glyph glyph-name="L" unicode="L" horiz-adv-x="711" 
d="M244 1731l55 -43l-43 -193l8 -410v-206q0 -326 -55 -734v-12l27 -29h249l138 41l28 -41q0 -124 -514 -124q-55 0 -55 55h-12q110 287 110 844l-6 796q14 56 70 56z" />
    <glyph glyph-name="M" unicode="M" horiz-adv-x="983" 
d="M752 1733q84 -33 84 -99l96 -1437v-97q0 -71 -41 -82h-29l-41 27l15 207v43q0 598 -84 1063h-13q-84 -260 -180 -912l-84 -40q-76 0 -96 358q-152 461 -193 498h-14l14 -207v-250q0 -871 -84 -871h-41l-14 70l55 567h-14l14 13v180q0 659 -41 747q27 64 56 68h41
q69 -4 166 -414q69 -131 151 -471h43l178 844v41l-12 84q0 55 68 55v15z" />
    <glyph glyph-name="N" unicode="N" horiz-adv-x="950" 
d="M752 1759q67 0 67 -137l-26 -84l8 -225l69 -1065l-14 -55l27 -166q-27 -64 -56 -70h-41q-51 0 -165 416q-338 938 -402 966q-37 0 -55 -469l14 -194l-14 -125l29 -428l-41 -55h-15q-74 0 -84 41l29 401l-14 14l14 70v580q0 165 55 249v27l-55 70v41q27 55 82 55
q61 0 235 -442q84 -162 250 -705l111 -221h12v151l-76 1043l13 192l-13 70q11 41 56 55z" />
    <glyph glyph-name="O" unicode="O" horiz-adv-x="809" 
d="M375 1548h14q76 0 111 -125q262 -204 262 -718q0 -519 -277 -693l-139 -12q-227 0 -303 455v166q96 774 207 774q0 43 125 153zM113 594l12 -14v-15l-12 -41q41 -442 247 -442q318 0 318 649v55q-72 596 -289 596q-182 0 -276 -788z" />
    <glyph glyph-name="P" unicode="P" horiz-adv-x="627" 
d="M182 1702l56 -41l180 12q291 -28 291 -248q0 -258 -498 -663q-29 -72 -29 -250v-317l15 -82q-19 -86 -70 -125l-41 41h-14l43 1175v180q0 62 -56 111q41 72 41 152zM197 1384v-497h41q331 264 374 497q0 207 -209 207q-206 0 -206 -207z" />
    <glyph glyph-name="Q" unicode="Q" horiz-adv-x="922" 
d="M496 1714h28l39 -43q0 -22 -82 -55v-12q303 -265 303 -678v-29q0 -238 -67 -510q53 -137 166 -221l-56 -70q-36 0 -153 152q-160 -217 -221 -221l-123 -27q-209 0 -277 373l-14 192v29q0 651 319 1077zM109 442q47 -360 262 -360q235 125 235 291q0 67 -264 469v43l29 26
h26q31 0 250 -387h15q40 74 55 428q-99 541 -221 541h-15q-32 0 -41 -55h-26l-17 67l17 70h-17q-141 0 -276 -830z" />
    <glyph glyph-name="R" unicode="R" horiz-adv-x="692" 
d="M477 1567h55q123 0 123 -195q-116 -397 -387 -579v-43q254 -754 375 -830l55 -12v-55l-69 -56q-86 0 -277 510l-151 346h-43v-14l16 -233q0 -402 -72 -402h-39q-32 0 -43 70l43 137l27 995q-70 0 -70 56q56 84 56 124v111l43 41h12l98 -27zM186 1358l-12 -373v-96l27 -29
h28q316 279 316 498v69l-56 56h-12q-155 0 -291 -125z" />
    <glyph glyph-name="S" unicode="S" horiz-adv-x="809" 
d="M586 1763q49 0 166 -96v-55h-27v-15q-111 70 -180 70h-70q-282 -158 199 -1372l14 -68q0 -276 -317 -458l-99 -27q-206 59 -206 209q16 67 40 67h29q45 -178 96 -178q318 0 361 387v68q-596 1370 -103 1456z" />
    <glyph glyph-name="T" unicode="T" horiz-adv-x="715" 
d="M879 1612l41 -15v-41q0 -40 -56 -40v-15l-55 15q-313 -41 -332 -70l15 -414l4 -618l12 -82l-12 -70v-151q0 -66 -70 -111q-64 27 -68 55v41q56 74 56 125v55l12 248l-12 70l8 340q-31 512 -68 512h-69l-222 -14q-69 18 -69 43v41l41 40l166 -26q166 12 221 55l84 -29z
" />
    <glyph glyph-name="U" unicode="U" horiz-adv-x="739" 
d="M145 1628h41l27 -29v-12q-80 -538 -80 -723v-82l12 -14l-12 -14v-68q45 -582 123 -582h14q199 0 305 775l13 165l-43 500l43 55q110 0 110 -165l-12 -375q-141 -1079 -430 -1079q-207 0 -207 983q33 665 96 665z" />
    <glyph glyph-name="V" unicode="V" horiz-adv-x="745" 
d="M680 1722q84 -28 84 -55q0 -47 -43 -96q-25 -789 -246 -1534l-67 -41q-66 0 -84 207q-97 252 -279 1353l55 56q82 0 238 -1243q74 -179 96 -179q166 584 166 912v123l10 456z" />
    <glyph glyph-name="W" unicode="W" horiz-adv-x="1087" 
d="M156 1698q47 -15 55 -56q-55 -462 -55 -690v-428l14 -192l-14 -43q10 -152 41 -152q139 203 317 926v98l-27 41q35 96 82 96q80 0 99 -96l-15 -96q60 -858 181 -858q73 0 96 497v236q0 199 -41 666l55 96q55 -14 55 -82l27 -860q-51 -705 -192 -705q-164 0 -250 801
q-37 -23 -181 -498q-157 -462 -233 -469h-29q-35 0 -41 56h-14l-14 649v166q2 897 71 897h13z" />
    <glyph glyph-name="X" unicode="X" horiz-adv-x="782" 
d="M725 1700q45 -14 55 -55q-110 -150 -305 -914v-14q146 -309 264 -498q-20 -55 -43 -55h-12q-31 4 -250 416q-39 -33 -221 -553l-137 -250l-70 -13l-29 41q302 453 388 885v70l-207 635l41 41h14q45 0 166 -455l14 -14q0 -41 27 -41h29q167 682 276 774z" />
    <glyph glyph-name="Y" unicode="Y" horiz-adv-x="758" 
d="M641 1698h55l56 -56q-68 -129 -131 -884q-107 -830 -347 -830v-14q-192 0 -221 152v14h29v14l125 -84q311 0 399 1272h-12l-195 -332q-151 -192 -192 -192h-43q-60 0 -68 192v125q8 572 137 664l41 -15v-41q-81 -227 -81 -692q14 -96 40 -96q248 231 408 803z" />
    <glyph glyph-name="Z" unicode="Z" horiz-adv-x="922" 
d="M664 1774h41l40 -41v-15q37 -491 -540 -1552v-43h55l541 153q82 0 82 -98v-12q-27 -55 -82 -55l-99 26l-581 -137q-39 0 -82 55q524 883 582 1594l-41 14l-402 -139q-61 28 -67 55v14q0 41 221 56q0 28 332 125z" />
    <glyph glyph-name="bracketleft" unicode="[" 
d="M193 1575l430 -96v-29q-15 -41 -82 -41l-305 27q-56 0 -93 -1399q33 -166 209 -166h68q65 0 139 82h41v-12q0 -136 -221 -166q-346 67 -346 233q55 170 78 1497q0 56 82 56v14z" />
    <glyph glyph-name="backslash" unicode="\" horiz-adv-x="637" 
d="M53 1421h43q37 0 111 -331q184 -531 414 -996q-21 -55 -41 -55h-29q-49 0 -358 829q-78 267 -195 510z" />
    <glyph glyph-name="bracketright" unicode="]" horiz-adv-x="608" 
d="M76 1622l221 -43h82l151 14l70 -55q-137 -123 -137 -788l-33 -672q0 -135 111 -262q-23 -70 -99 -70q-372 61 -372 96v41l12 15l43 14v14q113 -43 207 -43v140q47 1122 88 1433q-400 41 -400 96v27z" />
    <glyph glyph-name="asciicircum" unicode="^" horiz-adv-x="885" 
d="M469 1470h27q57 0 264 -512l55 -67v-55l-55 -17q-139 0 -139 238q-107 241 -138 248h-14q-84 -86 -276 -596l-56 -39h-14v67q293 733 346 733z" />
    <glyph glyph-name="underscore" unicode="_" horiz-adv-x="1245" 
d="M1120 174q58 -18 84 -70v-14l-28 -41l-166 14h-15l-553 -55h-288q-109 0 -127 55v41l28 29l248 -29h209z" />
    <glyph glyph-name="grave" unicode="`" horiz-adv-x="709" 
d="M135 1487q70 49 500 -168l-111 -88l-413 178z" />
    <glyph glyph-name="a" unicode="a" horiz-adv-x="700" 
d="M420 1090h43l41 -29l-15 -205q39 -735 125 -735h27v-12q0 -76 -55 -99h-56q-55 0 -96 305h-14q-80 -471 -248 -471q-96 0 -96 293v150q0 637 233 719q39 0 111 84zM172 330v-193q0 -153 41 -153q90 0 180 718v15q-10 194 -41 194h-43q-137 0 -137 -581z" />
    <glyph glyph-name="b" unicode="b" horiz-adv-x="680" 
d="M113 1655l69 -43l-14 -123l55 -690h15q120 166 206 166h43q166 -142 166 -293q-94 -459 -331 -690l-17 -13q-55 13 -55 68h-27q-102 0 -110 43v12l26 111q0 944 -94 1382q0 37 68 70zM266 92l13 -12q129 76 235 426l29 110q0 238 -127 238q-131 0 -150 -762z" />
    <glyph glyph-name="c" unicode="c" 
d="M365 1206l41 -14v-27q-277 -186 -277 -512l-12 -125v-178q0 -213 205 -276q165 0 208 137h41l15 -41q0 -150 -221 -195q-224 0 -304 222q-43 112 -43 209v96q0 403 209 635z" />
    <glyph glyph-name="d" unicode="d" horiz-adv-x="651" 
d="M514 1526q78 0 96 -68l-28 -98q34 -1403 63 -1370l-45 -33q-57 25 -61 25l-13 577l-12 14h-14q-84 -581 -250 -581h-27q-166 0 -166 332q0 241 236 471q194 45 194 151v193l-28 319q26 62 55 68zM168 379v-137q0 -107 70 -140h12q82 0 194 609l-12 14h-55
q-209 -127 -209 -346z" />
    <glyph glyph-name="e" unicode="e" 
d="M322 1155q221 -65 221 -221v-41q0 -309 -277 -428h-94v-29q0 -248 123 -346h43q78 0 221 221l12 -12h15q-99 -319 -277 -319q-162 0 -264 567q-22 0 -27 69q56 43 99 359q106 180 205 180zM156 643q12 -68 43 -68h84q166 78 166 318v14q-21 137 -127 137
q-166 0 -166 -401z" />
    <glyph glyph-name="f" unicode="f" horiz-adv-x="524" 
d="M549 1538q221 -8 221 -55v-27l-14 -14l-41 -15v-14l-15 14h-165q-222 0 -263 -401v-262h13q149 24 305 96l14 -12v-29q-14 -63 -332 -151l13 -443v-125q0 -104 -56 -125h-12l-43 56l29 139l-13 442l-16 41h-27q-170 0 -206 56q28 84 55 84h29l110 -29h12q31 0 27 207
q53 567 375 567z" />
    <glyph glyph-name="g" unicode="g" horiz-adv-x="696" 
d="M590 1114h26l43 -41v-69q-98 -185 -98 -457l17 -815q0 -623 -195 -623q0 -27 -70 -27q-166 35 -166 152v14h27q92 -69 154 -69q151 0 151 456v676l-12 99h-29q-104 -387 -303 -387h-16q-47 6 -94 206q0 416 260 734l209 81q0 70 96 70zM135 395v-221q0 -41 55 -41
q113 0 277 664v123q-236 0 -320 -414z" />
    <glyph glyph-name="h" unicode="h" horiz-adv-x="719" 
d="M92 1647h41l41 -41v-15l-27 -110v-97l27 -692l14 -41h27q92 346 277 346q133 0 153 -761l27 -152l-41 -70q-72 0 -84 140v96q0 622 -111 622q-170 -65 -207 -663q9 -195 29 -195q-29 -61 -55 -67h-43q-68 39 -68 110l27 68q-58 1425 -111 1425q23 62 84 97z" />
    <glyph glyph-name="i" unicode="i" horiz-adv-x="285" 
d="M164 1290q53 0 98 -55q0 -41 -98 -96q-37 0 -68 67q27 76 68 84zM164 930l43 -56q-55 -55 -55 -303q6 -262 81 -510v-28l-40 -43h-41q-66 0 -99 651q0 289 84 289h27z" />
    <glyph glyph-name="j" unicode="j" horiz-adv-x="418" 
d="M100 1188q90 -35 97 -68v-43l-41 -39h-70q-41 13 -41 82zM184 967l41 -39l-14 -183q96 -743 96 -978v-72q0 -719 -317 -719q-152 80 -152 221v84h27l98 -194l12 -13h29q221 0 221 719q-41 680 -139 1106q20 68 98 68z" />
    <glyph glyph-name="k" unicode="k" horiz-adv-x="731" 
d="M80 1489q61 -25 70 -55l-29 -152l29 -580h12q98 74 250 373l14 15h27l55 -56v-28q-318 -426 -318 -484v-14q0 -168 414 -442h14l84 28v-55q-26 -49 -84 -70q-124 27 -428 332l-14 -14v-82q6 -103 41 -139q-27 -82 -55 -82h-27l-69 67l14 99v110q0 234 -29 234l15 55
l-41 858h-15q0 25 70 82z" />
    <glyph glyph-name="l" unicode="l" horiz-adv-x="289" 
d="M150 1614l47 12l-11 -252l-4 -225l11 -647l-13 -277l29 -166q0 -26 -72 -84l-67 56q28 71 28 291v26l21 1221q24 45 31 45z" />
    <glyph glyph-name="m" unicode="m" horiz-adv-x="905" 
d="M674 1174q129 0 182 -842v-277l-43 -43q-59 0 -84 56l29 290q-31 619 -96 637h-27q-127 -344 -127 -884l-39 -29h-55q-25 0 -43 70q55 96 55 483q-18 262 -68 262h-16q-111 0 -111 -621v-110l17 -84q-31 -82 -111 -82l-55 68l27 180v69l-43 623q0 78 71 96q56 -14 56 -84
l-29 -82v-28h12q109 209 166 209q74 0 154 -154q28 0 96 236z" />
    <glyph glyph-name="n" unicode="n" horiz-adv-x="637" 
d="M369 1214h12q164 0 194 -620v-250l15 -151l-15 -56l15 -125l-43 -26q-68 18 -68 96v457q0 483 -98 524h-12q-148 -76 -181 -608v-387l15 -56q-29 -82 -56 -82q-69 0 -84 56l15 372l-41 623v82l55 55q55 -20 55 -41l-14 -207l14 -14h27q0 203 195 358z" />
    <glyph glyph-name="o" unicode="o" horiz-adv-x="553" 
d="M338 1079q129 0 180 -370l-14 -17v-82q-35 -637 -221 -637l-15 -12h-14q-207 47 -207 526q0 592 291 592zM131 555q31 -483 123 -483h14q117 0 152 497v195q0 186 -123 205q-166 -49 -166 -414z" />
    <glyph glyph-name="p" unicode="p" horiz-adv-x="573" 
d="M293 930q143 0 178 -320q0 -221 -303 -565v-16q0 -314 43 -719l-43 -27h-12q-84 0 -84 154l-15 123l15 14v12l-43 443l16 84v290l12 166h-12q72 361 248 361zM156 432v-250h12q209 199 209 471q-55 166 -98 166h-13q-110 -90 -110 -387z" />
    <glyph glyph-name="q" unicode="q" horiz-adv-x="686" 
d="M399 1083q127 0 166 -82l-14 -55q70 -643 84 -1272q0 -344 -84 -387q-55 0 -55 70h-13q56 70 56 498q0 376 -43 663h-27q-107 -457 -250 -457q-166 0 -166 304v84q0 358 277 608q69 0 69 26zM152 408v-111q0 -107 55 -125h26q107 0 207 553l15 41q-15 207 -56 207
q-206 0 -247 -565z" />
    <glyph glyph-name="r" unicode="r" horiz-adv-x="580" 
d="M446 1096h41l56 -56v-28l-29 -27l-68 14q-221 -292 -221 -553v-221l13 -153q0 -56 -68 -56v-12q-55 21 -55 41v152q-52 663 -84 663q28 84 55 84h14q56 -22 56 -98v-152h14q137 299 276 402z" />
    <glyph glyph-name="s" unicode="s" horiz-adv-x="532" 
d="M477 1151l15 -16v-27q-263 -186 -263 -387v-29q0 -147 236 -413l12 -56q-100 -262 -387 -262q-151 0 -151 111l165 -15h56q194 47 194 166v15q0 34 -194 317l-41 154q0 254 332 442h26z" />
    <glyph glyph-name="t" unicode="t" horiz-adv-x="393" 
d="M168 1649l31 2l6 -99v-14q0 -317 41 -317l135 45q14 -29 27 -60q-25 -22 -11 -28l-166 -82l29 -719v-55q-4 -203 -29 -326l-65 4l-4 215v342v152q0 358 -41 358l-127 -10l-45 18l4 33l24 6h27q131 19 131 92l-29 414l15 12z" />
    <glyph glyph-name="u" unicode="u" horiz-adv-x="580" 
d="M520 1022l27 -29l-27 -110v-43l12 -111q-55 -745 -233 -745q-182 0 -264 706v82q0 105 55 123h29l41 -27l-15 -96v-137q0 -275 125 -541h29q96 39 123 524v140q0 98 -27 153q0 88 125 111z" />
    <glyph glyph-name="v" unicode="v" horiz-adv-x="543" 
d="M504 1065q26 -6 55 -70q-43 -84 -250 -897q-53 -110 -110 -127q-82 0 -82 387l-56 582q19 82 82 82l41 -55l-12 -111q6 -647 68 -647q180 549 180 702l-14 111q51 43 98 43z" />
    <glyph glyph-name="w" unicode="w" horiz-adv-x="956" 
d="M840 1161q43 -53 43 -125v-235q-35 -801 -209 -801q-125 0 -178 553h-27q-129 -512 -209 -512h-29v-14q-149 0 -192 553v41q14 374 82 374h16l39 -43q-39 -123 -39 -262q27 -524 94 -524q99 0 209 719l-14 166l82 26l55 -41v-69q0 -619 99 -830h12q88 0 127 649l-43 277
v14q0 84 82 84z" />
    <glyph glyph-name="x" unicode="x" horiz-adv-x="662" 
d="M592 1337l67 -55q-237 -465 -276 -774l180 -457q-18 -67 -41 -67h-69q0 122 -97 358h-28q-209 -633 -262 -678l-15 -12q-55 12 -55 55q74 90 276 787q-137 454 -178 497v43l41 41h41q41 0 111 -360l14 -41h41q180 663 250 663z" />
    <glyph glyph-name="y" unicode="y" horiz-adv-x="686" 
d="M524 1022h43l56 -55q-27 -56 -27 -152v-98l-16 -359l16 -14v-14l-16 -137q0 -1010 -95 -1010h-55l-55 69q82 64 82 263q41 379 41 1065h-13q-20 -7 -194 -457q-60 -55 -125 -70q-123 0 -123 416q0 330 123 401l43 -14v-55q-72 -86 -72 -262v-84q0 -248 56 -248h16
q260 442 260 731z" />
    <glyph glyph-name="z" unicode="z" horiz-adv-x="770" 
d="M451 1274h14q55 -19 55 -123v-29q0 -239 -317 -983v-26l26 -29h41q52 0 361 139h41l41 -41v-26l-68 -72l-14 16h-41l-346 -139q-195 33 -195 96q361 744 361 955v139h-29q-39 0 -262 -139h-41l-41 55q0 33 207 123q94 80 207 84z" />
    <glyph glyph-name="braceleft" unicode="{" horiz-adv-x="631" 
d="M598 1751v-29q-356 -262 -401 -442q-56 -86 -56 -166v-94q0 -139 181 -166l180 39q41 -12 41 -82v-12l-207 -140q-111 -124 -111 -180v-12h15l206 55h15l41 -43v-41q-180 -202 -180 -524q51 -43 96 -43q33 0 153 111h13l43 -29q-95 -137 -250 -178q-125 0 -152 194
l82 359l-12 12h-14l-181 -12l-55 41v69q236 281 236 318q-144 0 -236 192l-14 56q0 350 387 679q108 68 180 68z" />
    <glyph glyph-name="bar" unicode="|" horiz-adv-x="489" 
d="M133 1845l47 10l4 -339l-4 -228l13 -786l-13 -277l29 -166q0 -26 -72 -84l-67 56q28 71 28 291v26l2 1450q27 47 33 47z" />
    <glyph glyph-name="braceright" unicode="}" horiz-adv-x="631" 
d="M248 1724h82q221 -96 221 -233v-70q-53 -295 -277 -581v-27q9 -41 111 -41l55 -14l41 -68q-12 -53 -96 -139v-55h123q43 0 43 -56h12q-168 -331 -399 -553h-43l-39 41v27q301 254 315 387v43h-12l-209 -27l-55 82l153 140l41 55q0 27 -41 27l-208 -15l-39 55v43
q233 170 233 234q158 178 193 414v71q0 123 -222 123l-38 55q30 82 55 82z" />
    <glyph glyph-name="asciitilde" unicode="~" horiz-adv-x="1251" 
d="M1071 1532q-182 -234 -375 -178l-110 65q-187 217 -211 226l-13 4q-88 22 -149 -125l-6 -45l-76 8q39 235 248 262l41 -23q168 -247 280 -280l21 -4q151 -43 326 133l20 -6l10 -13z" />
    <glyph glyph-name="exclamdown" unicode="&#xa1;" horiz-adv-x="524" 
d="M239.207 -135.804l93.0215 49.4746v1117.61l-14.3848 16.7861h-24.9336q-53.7031 -34.4561 -53.7031 -486.8v-697.068zM278.525 1355.52q84.3906 32.6895 93.0215 81.2812v46.8242q-25.8926 65.3779 -65.2109 65.3779q-80.5547 0 -105.488 -96.2998
q0 -48.5918 77.6777 -97.1836z" />
    <glyph glyph-name="cent" unicode="&#xa2;" 
d="M311 1565l47 12l11 -61l-4 -228v-82l202 17l-30 -80q-97 -15 -170 -58l10 -583l-12 -277l18 -145q113 20 147 131h41l15 -41q0 -141 -193 -168l13 -92q0 -27 -68 -84l-72 55q4 60 6 119q-149 25 -211 197q-43 112 -43 209v96q0 403 209 635l52 26v357q24 45 32 45z
M129 653l-12 -125v-178q0 -190 159 -262q7 117 7 234v26l-2 672q-125 -127 -152 -367z" />
    <glyph glyph-name="sterling" unicode="&#xa3;" horiz-adv-x="1096" 
d="M543 676h14l41 -41v-41q-236 -16 -322 -31q-28 -319 -86 -493l314 159l432 -129l-43 -110q-385 168 -389 129q-469 -260 -434 -84q75 194 98 514q-105 -17 -148 -27l-55 41v70l209 18l-24 746q-130 493 765 -144l7 -120l-516 274l-132 61q2 -507 11 -809z" />
    <glyph glyph-name="currency" unicode="&#xa4;" horiz-adv-x="971" 
d="M709 1303l67 -56q-80 -153 -137 -291q70 -151 70 -300.5t-56 -280.5l113 -246q-18 -68 -41 -68h-70q0 107 -51 238q-65 -72 -176 -63h-14q-60 12 -103 61q-90 -219 -123 -250l-14 -12q-55 12 -55 55q33 -37 141 291q-53 133 -49 227t37 232q-98 254 -125 280v43l41 41h43
q24 0 98 -217q72 107 211 92q33 -8 62 -35q86 259 131 259zM342 768q-61 -188 64 -352q176 -156 206 221v65q-28 203 -151 222q-103 -58 -119 -156z" />
    <glyph glyph-name="yen" unicode="&#xa5;" horiz-adv-x="707" 
d="M590 657h14l41 -41v-41q-113 -6 -213 -14v-78l184 23h15l41 -43v-41q-129 -14 -244 -31l-16 -457l-140 -26q9 190 25 461q-123 -21 -219 -45l-55 43v67l280 35q2 39 6 80q-151 -19 -264 -45l-55 41v69l327 23l5 37l-154 618q47 86 113 86l26 -166q15 -133 88 -395
q125 273 125 518q51 41 125 -37q-65 -266 -209 -624l-2 -27z" />
    <glyph glyph-name="brokenbar" unicode="&#xa6;" horiz-adv-x="309" 
d="M207 930l6 -428l16 -443q0 -26 -71 -84l-68 56q29 71 29 897zM111 1024l10 774q26 47 33 47l47 10l4 -339l-4 -228l-11 -264h-79z" />
    <glyph glyph-name="section" unicode="&#xa7;" horiz-adv-x="770" 
d="M616 1323l-14 -57v-27q-274 174 -307 8v-26q0 -148 182 -310q494 -379 -155 -436q-41 0 -72 10q473 -151 395 -300.5t-379 -102.5q-151 0 -151 111l166 -15h55q379 -28 49 170q-215 49 -317.5 262t208.5 398q-24 34 -88 196q-32 359 428 119zM338 571l176 19
q131 39 64 137l-269 231q-233 -176 -67 -378z" />
    <glyph glyph-name="dieresis" unicode="&#xa8;" horiz-adv-x="1573" 
d="M395 1655h41l60 -78q0 -51 -74 -96q-60 26 -86 96zM707 1665h41l59 -78q0 -51 -74 -96q-59 27 -86 96z" />
    <glyph glyph-name="copyright" unicode="&#xa9;" horiz-adv-x="1018" 
d="M674 729l-23 -90q-227 295 -274 256l-15 -125v-178q0 -215 207 -277q109 47 154 187h41l14 -43q-18 -154 -166 -242q-223 0 -305 221q-41 113 -41 209v96q72 523 408 -14zM471 1251q551 -121 445.5 -716.5t-547.5 -505.5q-338 57 -301 643q125 448 207.5 524t195.5 55z
M115 635q51 -518 260 -518q456 -41 477.5 491.5t-416.5 579.5q-182 0 -321 -553z" />
    <glyph glyph-name="ordfeminine" unicode="&#xaa;" horiz-adv-x="424" 
d="M265.673 826.869h29.5547l28.1807 -13.6191l-10.3105 -96.2686q26.8057 -345.159 85.915 -345.159h18.5576v-5.63574q0 -35.6895 -37.8027 -46.4902h-38.4893q-37.8027 0 -65.9824 143.229h-9.62305q-54.9854 -221.184 -170.454 -221.184q-65.9824 0 -65.9824 137.594
v70.4404q0 299.138 160.145 337.646q26.8057 0 76.292 39.4473zM95.2188 469.97v-90.6338q0 -71.8496 28.1797 -71.8496q61.8584 0 123.717 337.176v7.04395q-6.87305 91.1035 -28.1797 91.1035h-29.5547q-94.1621 0 -94.1621 -272.84z" />
    <glyph glyph-name="guillemotleft" unicode="&#xab;" horiz-adv-x="1114" 
d="M643 1044q55 -12 55 -55q0 -24 -358 -303l-14 -70l372 -247v-43l-41 -41q-39 0 -331 207q-39 28 -181 43l-26 55q0 67 137 110q80 119 387 344zM985 1094q55 -15 55 -56q0 -26 -358 -305l-12 -67l370 -250v-41l-39 -41q-38 0 -331 207q-39 26 -183 41l-26 55
q0 70 137 111q80 118 387 346z" />
    <glyph glyph-name="logicalnot" unicode="&#xac;" horiz-adv-x="1079" 
d="M88 618q10 74 49 91l285 -13q352 -24 555 23q22 45 -23 -438l-88 6l19 321h-11q-260 -45 -786 10z" />
    <glyph glyph-name="registered" unicode="&#xae;" horiz-adv-x="809" 
d="M762 705q0 -519 -277 -693l-139 -12q-227 0 -303 455v166q96 774 207 774q504 311 512 -690zM489 1171q111 -26 111 -133q-12 -213 -199 -329q123 -428 193 -476q84 162 84 498l-37 369q-35 282 -252 282q-182 0 -276 -788v-70q41 -442 247 -442q125 0 199 98
q-47 51 -127 269l-84 190h-22v-6l8 -131q0 -223 -41 -223h-21q-18 0 -24 38l31 791l24 22h6zM340 1030l-6 -207v-53l14 -16q193 155 193 276v39l-33 29h-6q-86 0 -162 -68z" />
    <glyph glyph-name="macron" unicode="&#xaf;" horiz-adv-x="618" 
d="M520 1358l41 6l2 -104q-186 34 -461 20l7 94z" />
    <glyph glyph-name="macron" unicode="&#x2c9;" horiz-adv-x="618" 
d="M520 1358l41 6l2 -104q-186 34 -461 20l7 94z" />
    <glyph glyph-name="degree" unicode="&#xb0;" horiz-adv-x="348" 
d="M211.643 576.104q88.0254 0 122.826 -101.194l-9.55273 -4.64941v-22.4268q-23.8828 -174.219 -150.805 -174.219l-10.2354 -3.28125h-9.55371q-141.251 12.8535 -141.251 143.859q0 161.911 198.571 161.911zM70.3906 432.792q21.1543 -132.101 83.9316 -132.101
h9.55371q79.8379 0 103.721 135.93v53.332q0 50.8701 -83.9316 56.0674q-113.274 -13.4014 -113.274 -113.229z" />
    <glyph glyph-name="plusminus" unicode="&#xb1;" horiz-adv-x="1032" 
d="M860 383h14l41 -41v-41q-204 -18 -362 -37q-8 -8 -14 -8h-29l-4 2q-207 -29 -330 -57l-55 41v69l325 31q-28 72 -20 182q10 203 -27 203l-288 -29l-29 43v41q0 27 166 27h84l67 14v140l-12 81q19 74 68 111l55 -27l-12 -165v-111q0 -29 41 -29l276 29l27 -43v-12
q0 -39 -318 -70v-14l51 -357z" />
    <glyph glyph-name="twosuperior" unicode="&#xb2;" horiz-adv-x="510" 
d="M220.707 1131.53q82.8691 -16.498 82.8691 -150.84q-51.9814 -342.689 -125.058 -526.997q109.99 8.01367 228.268 90.9756h11.2998l30.8877 -19.3262q0 -78.248 -281.002 -137.17l-83.6221 13.6699v5.65625q208.68 631.171 114.51 645.783q-60.2686 0 -72.3223 -182.422
l-30.8877 -13.6699q-27.874 0 -63.2822 39.5957q30.8877 100.402 86.2598 166.631q55.3721 66.2275 102.08 68.1133z" />
    <glyph glyph-name="threesuperior" unicode="&#xb3;" horiz-adv-x="489" 
d="M255.923 1087.27q47.8906 -10.5479 47.8906 -48.2168q0 -42.1895 -65.6777 -222.501h45.8369q161.458 0 161.458 -125.564q0 -158.211 -312.653 -318.432q-45.8379 4.01855 -45.8379 34.6562h-10.2617q18.4717 32.1445 38.3125 34.1533l28.0498 -6.5293
q236.713 130.085 236.713 270.717q0 25.6152 -66.3613 62.7822q-121.778 0 -170.352 -110.999l-28.0498 -21.5967h-19.8408q-18.4717 4.01758 -37.6279 34.6553q170.352 213.963 170.352 305.876v27.624l-9.57812 7.03125v7.53418q-67.0459 0 -85.5176 -125.564
l10.2627 -7.53418q0 -20.0898 -56.1006 -40.6826q-29.418 5.02246 -38.3115 27.624q70.4668 214.967 207.295 214.967z" />
    <glyph glyph-name="acute" unicode="&#xb4;" horiz-adv-x="686" 
d="M176 1378l-65 60q286 248 309 258l51 -51z" />
    <glyph glyph-name="mu" unicode="&#xb5;" horiz-adv-x="569" 
d="M508 883v-43l14 -111q-22 -307 -6 -711q-37 -4 -59 -4q-47 84 -60 62q-47 -92 -110 -92q-43 0 -152 108q-24 -39 -61 -176q18 -16 -62 16q33 146 33 226q14 223 -20 532v82q0 105 55 123h26l44 -27l-15 -96v-137q60 -584 152 -541q96 39 125 524v140q0 98 -29 153
q0 88 125 -28z" />
    <glyph glyph-name="mu" unicode="&#x3bc;" horiz-adv-x="569" 
d="M508 883v-43l14 -111q-22 -307 -6 -711q-37 -4 -59 -4q-47 84 -60 62q-47 -92 -110 -92q-43 0 -152 108q-24 -39 -61 -176q18 -16 -62 16q33 146 33 226q14 223 -20 532v82q0 105 55 123h26l44 -27l-15 -96v-137q60 -584 152 -541q96 39 125 524v140q0 98 -29 153
q0 88 125 -28z" />
    <glyph glyph-name="paragraph" unicode="&#xb6;" horiz-adv-x="950" 
d="M635 1139h29q215 10 188 -41l-23 -590l15 -442q0 -25 -70 -82l-41 53q0 72 33 1003q-29 -4 -68 -6q-63 -119 -98 -819l41 -166l-55 -55q-56 0 -97 84l15 96v41l49 358v27h-29q-116 -151 -262 -151q-194 0 -194 235q139 428 430 428z" />
    <glyph glyph-name="periodcentered" unicode="&#xb7;" horiz-adv-x="354" 
d="M141 614q72 13 90 -73q-22 -97 -75 -84q-45 22 -60 88q0 35 45 69z" />
    <glyph glyph-name="periodcentered" unicode="&#x2219;" horiz-adv-x="354" 
d="M141 614q72 13 90 -73q-22 -97 -75 -84q-45 22 -60 88q0 35 45 69z" />
    <glyph glyph-name="cedilla" unicode="&#xb8;" horiz-adv-x="1106" 
d="M514 43v-29q0 -149 236 -413l14 -56q-100 -264 -387 -264q-152 0 -152 111l166 -13h55q193 46 193 166v13q0 36 -193 319l-43 150z" />
    <glyph glyph-name="onesuperior" unicode="&#xb9;" horiz-adv-x="317" 
d="M83.4775 1233.33h29.29l38.1445 -29.0938l-18.3916 -43.6406v-42.6016q0 -85.7227 113.071 -610.449l26.5645 -21.3008v-7.27344q0 -60.7852 -55.8535 -78.9688q-33.377 0 -57.2168 21.3008l10.8984 42.6016q0 112.738 -113.072 754.359z" />
    <glyph glyph-name="ordmasculine" unicode="&#xba;" horiz-adv-x="348" 
d="M207.453 895.623q78.4121 0 109.413 -177.841l-8.51074 -8.1709v-39.4141q-21.2744 -306.175 -134.334 -306.175l-9.11816 -5.76758h-8.50977q-125.824 22.5908 -125.824 252.822q0 284.546 176.884 284.546zM81.6279 643.762q18.8438 -232.154 74.7656 -232.154h8.50977
q71.1182 0 92.3936 238.884v93.7266q0 89.4014 -74.7656 98.5342q-100.903 -23.5527 -100.903 -198.99z" />
    <glyph glyph-name="guillemotright" unicode="&#xbb;" horiz-adv-x="1102" 
d="M158 1227q528 -328 528 -453q0 -67 -485 -457l-82 70q18 51 230 190.5t212 223.5l-483 332v55q0 37 55 43zM526 1253q41 0 297 -173t256 -298q0 -69 -194.5 -243t-288.5 -213l-74 47q39 41 235.5 196.5t196.5 241.5l-483 332v55q0 35 55 55z" />
    <glyph glyph-name="onequarter" unicode="&#xbc;" horiz-adv-x="1280" 
d="M95.1045 1359.03h37.1416l48.3711 -34.1465l-23.3213 -51.2178v-49.999q0 -100.607 143.386 -716.445l33.6875 -25v-8.53613q0 -71.3398 -70.8301 -92.6807q-42.3242 0 -72.5566 24.999l13.8203 49.999q0 132.314 -143.385 885.345zM696 1532h29v-27
q-139 -766 -332 -1300q-29 0 -29 -125l-38 -27l-72 14v56q201 401 375 1272q0 96 67 137zM1025.26 992.854q31.1699 0 39.9365 -40.0547l-26.2998 -157.929v-355.339h13.6367q108.121 -16.5938 -27.2734 -94.9854v-87.5479l-14.6104 -127.029l41.8838 -38.3379
q-27.2734 -48.0654 -53.5732 -48.0654h-28.2471q-53.5732 16.5947 -53.5732 48.0654l18.5068 240.326l-193.838 -12.0166l-53.5732 24.6055q13.6367 479.507 -12.6631 521.85q22.4033 39.4824 66.2363 39.4824q36.04 0 68.1836 -39.4824l-26.2988 -46.9199l11.6885 -411.415
l41.8848 -24.6055h66.2354l41.8848 24.6055q0 584.793 79.873 584.793z" />
    <glyph glyph-name="onehalf" unicode="&#xbd;" horiz-adv-x="1204" 
d="M95.1045 1344.74h37.1416l48.3711 -33.4717l-23.3213 -50.208v-49.0137q0 -98.623 143.386 -702.317l33.6875 -24.5068v-8.36719q0 -69.9336 -70.8301 -90.8535q-42.3242 0 -72.5566 24.5068l13.8203 49.0127q0 129.704 -143.385 867.885zM647 1493h29v-27
q-139 -766 -332 -1300q-29 0 -29 -125l-38 -27l-72 14v56q201 401 375 1272q0 96 67 137zM811.071 778.968q113.115 -16.374 113.115 -149.707q-70.9541 -340.115 -170.701 -523.039q150.135 7.95312 311.581 90.292h15.4248l42.1611 -19.1807q0 -77.6611 -383.563 -136.14
l-114.144 13.5664v5.61426q284.845 626.431 156.305 640.934q-82.2656 0 -98.7188 -181.052l-42.1611 -13.5674q-38.0479 0 -86.3789 39.2979q42.1611 99.6484 117.743 165.38q75.5811 65.7305 139.337 67.6016z" />
    <glyph glyph-name="threequarters" unicode="&#xbe;" horiz-adv-x="1376" 
d="M341.82 1077.91q66.4453 -10.4111 66.4453 -47.5957q0 -41.6465 -91.125 -219.634h63.5977q224.016 0 224.016 -123.947q0 -156.174 -433.793 -314.33q-63.5977 3.96582 -63.5977 34.209h-14.2383q25.6289 31.7305 53.1562 33.7139l38.918 -6.44531
q328.43 128.409 328.43 267.23q0 25.2852 -92.0742 61.9736q-168.961 0 -236.355 -109.569l-38.918 -21.3193h-27.5273q-25.6289 3.9668 -52.207 34.21q236.355 211.205 236.355 301.935v27.2686l-13.2891 6.94141v7.43652q-93.0234 0 -118.652 -123.947l14.2383 -7.43652
q0 -19.832 -77.8359 -40.1592q-40.8164 4.95801 -53.1562 27.2686q97.7695 212.197 287.613 212.197zM837 1503h29v-27q-139 -766 -332 -1300q-29 0 -29 -125l-38 -27l-72 14v56q201 401 375 1272q0 96 67 137zM1070.77 901.773q28.5039 0 36.5205 -36.79l-24.0498 -145.059
v-326.381h12.4697q98.873 -15.2422 -24.9404 -87.2451v-80.4131l-13.3613 -116.678l38.3018 -35.2129q-24.9404 -44.1484 -48.9912 -44.1484h-25.8311q-48.9912 15.2412 -48.9912 44.1484l16.9238 220.74l-177.259 -11.0371l-48.9912 22.6006
q12.4707 440.431 -11.5791 479.322q20.4873 36.2646 60.5703 36.2646q32.958 0 62.3525 -36.2646l-24.0498 -43.0967l10.6885 -377.888l38.3027 -22.5996h60.5703l38.3027 22.5996q0 537.137 73.041 537.137z" />
    <glyph glyph-name="questiondown" unicode="&#xbf;" horiz-adv-x="512" 
d="M229.004 31.1514h-31.833q-137.215 0 -137.215 216.858q0 113.098 229.423 573.791l45.0059 157.715v142.15q-8.78125 199.219 -45.0059 216.858q19.7588 59.1436 74.6445 87.1582h15.3682q31.834 -8.30078 60.374 -74.707l-15.3672 -85.083q0 -284.302 92.208 -387.023
q0 -57.0684 -182.222 -171.204q-152.582 -272.888 -152.582 -360.046v-99.6094l47.2012 -44.6172q42.8115 0 105.381 229.309l45.0068 30.0908l60.374 -42.542q-109.771 -389.099 -210.762 -389.099zM334.385 1654.99h-45.0059q-60.375 28.0146 -60.375 85.082
q0 57.0684 90.0137 57.0684v13.4883q62.5693 -19.7139 92.208 -70.5566v-14.5254z" />
    <glyph glyph-name="Agrave" unicode="&#xc0;" horiz-adv-x="788" 
d="M541 1700q149 -4 155 -1376l43 -443l-69 -12h-29l-41 41v512l-14 207h-13q-331 -41 -362 -140q-53 -503 -80 -509h-55l-56 55q68 526 222 1161q106 524 299 504zM256 725l68 -53q276 61 276 94v250l14 180l-34 139q-39 166 -82 166q-88 0 -242 -776zM258 1981
q70 49 500 -168l-111 -88l-413 178z" />
    <glyph glyph-name="Aacute" unicode="&#xc1;" horiz-adv-x="788" 
d="M541 1700q149 -4 155 -1376l43 -443l-69 -12h-29l-41 41v512l-14 207h-13q-331 -41 -362 -140q-53 -503 -80 -509h-55l-56 55q68 526 222 1161q106 524 299 504zM256 725l68 -53q276 61 276 94v250l14 180l-34 139q-39 166 -82 166q-88 0 -242 -776zM303 1634l-65 60
q286 248 309 258l51 -51z" />
    <glyph glyph-name="Acircumflex" unicode="&#xc2;" horiz-adv-x="788" 
d="M541 1700q149 -4 155 -1376l43 -443l-69 -12h-29l-41 41v512l-14 207h-13q-331 -41 -362 -140q-53 -503 -80 -509h-55l-56 55q68 526 222 1161q106 524 299 504zM256 725l68 -53q276 61 276 94v250l14 180l-34 139q-39 166 -82 166q-88 0 -242 -776zM497 2009h27
q57 0 254 -387q-119 -51 -137 94q-99 123 -129 127h-15q-84 -86 -190 -182l-56 -39h-12v67q205 320 258 320z" />
    <glyph glyph-name="Atilde" unicode="&#xc3;" horiz-adv-x="788" 
d="M541 1700q149 -4 155 -1376l43 -443l-69 -12h-29l-41 41v512l-14 207h-13q-331 -41 -362 -140q-53 -503 -80 -509h-55l-56 55q68 526 222 1161q106 524 299 504zM256 725l68 -53q276 61 276 94v250l14 180l-34 139q-39 166 -82 166q-88 0 -242 -776zM1155 1786
q-182 -234 -375 -178l-110 65q-187 217 -211 226l-13 4q-88 22 -149 -125l-6 -45l-76 8q39 235 248 262l41 -23q168 -247 280 -280l21 -4q151 -43 326 133l20 -6l10 -13z" />
    <glyph glyph-name="Adieresis" unicode="&#xc4;" horiz-adv-x="788" 
d="M541 1700q149 -4 155 -1376l43 -443l-69 -12h-29l-41 41v512l-14 207h-13q-331 -41 -362 -140q-53 -503 -80 -509h-55l-56 55q68 526 222 1161q106 524 299 504zM256 725l68 -53q276 61 276 94v250l14 180l-34 139q-39 166 -82 166q-88 0 -242 -776zM326 1864h41l60 -78
q0 -51 -74 -96q-60 26 -86 96zM638 1874h41l59 -78q0 -51 -74 -96q-59 27 -86 96z" />
    <glyph glyph-name="Aring" unicode="&#xc5;" horiz-adv-x="788" 
d="M541 1700q149 -4 155 -1376l43 -443l-69 -12h-29l-41 41v512l-14 207h-13q-331 -41 -362 -140q-53 -503 -80 -509h-55l-56 55q68 526 222 1161q106 524 299 504zM256 725l68 -53q276 61 276 94v250l14 180l-34 139q-39 166 -82 166q-88 0 -242 -776zM531 2052
q105 0 174 -160q0 -209 -219 -244h-10q-193 0 -228 164v19q0 184 218 215q65 0 65 6zM314 1876v-29q0 -131 119 -170h20q158 0 185 190q0 119 -117 140l-45 8q-135 -12 -162 -139z" />
    <glyph glyph-name="AE" unicode="&#xc6;" horiz-adv-x="1309" 
d="M541 1700q149 -4 155 -1376l43 -443l-69 -12h-29l-41 41v512l-14 207h-13q-331 -41 -362 -140q-53 -503 -80 -509h-55l-56 55q68 526 222 1161q106 524 299 504zM256 725l68 -53q276 61 276 94v250l14 180l-34 139q-39 166 -82 166q-88 0 -242 -776zM1024 1749
q70 -19 70 -43v-41q0 -43 -320 -103l-10 -483v-70q0 -28 39 -28l264 28l12 -14v-14q0 -55 -315 -111l-55 -608v-27q0 -151 110 -151l371 151l24 -84q19 -20 -438 -178q-135 0 -178 277l68 594l-41 69q55 105 55 166l-14 350q0 138 -29 138q0 110 387 182z" />
    <glyph glyph-name="Ccedilla" unicode="&#xc7;" horiz-adv-x="731" 
d="M653 1741q84 -29 84 -55v-29q0 -27 -125 -27q-235 -123 -321 -401q-158 -314 -158 -701v-14q27 -414 193 -414l43 -14h82q79 35 180 332h41v-15q-72 -428 -248 -428q-234 0 -375 347l-12 137q0 598 325 1061q181 221 291 221zM388 43v-29q0 -149 236 -413l14 -56
q-100 -264 -387 -264q-152 0 -152 111l166 -13h55q193 46 193 166v13q0 36 -193 319l-43 150z" />
    <glyph glyph-name="Egrave" unicode="&#xc8;" horiz-adv-x="731" 
d="M464 1741q70 -19 70 -43v-41q0 -43 -320 -103l-10 -483v-70q0 -28 39 -28l264 28l12 -14v-14q0 -55 -315 -111l-55 -608v-27q0 -151 110 -151l371 151l24 -84q19 -20 -438 -178q-135 0 -178 277l68 594l-41 69q55 105 55 166l-14 350q0 138 -29 138q0 110 387 182z
M77 2050q70 49 500 -168l-111 -88l-413 178z" />
    <glyph glyph-name="Eacute" unicode="&#xc9;" horiz-adv-x="731" 
d="M464 1741q70 -19 70 -43v-41q0 -43 -320 -103l-10 -483v-70q0 -28 39 -28l264 28l12 -14v-14q0 -55 -315 -111l-55 -608v-27q0 -151 110 -151l371 151l24 -84q19 -20 -438 -178q-135 0 -178 277l68 594l-41 69q55 105 55 166l-14 350q0 138 -29 138q0 110 387 182z
M167 1700l-65 60q286 248 309 258l51 -51z" />
    <glyph glyph-name="Ecircumflex" unicode="&#xca;" horiz-adv-x="731" 
d="M464 1741q70 -19 70 -43v-41q0 -43 -320 -103l-10 -483v-70q0 -28 39 -28l264 28l12 -14v-14q0 -55 -315 -111l-55 -608v-27q0 -151 110 -151l371 151l24 -84q19 -20 -438 -178q-135 0 -178 277l68 594l-41 69q55 105 55 166l-14 350q0 138 -29 138q0 110 387 182z
M333 2144h27q57 0 254 -387q-119 -51 -137 94q-99 123 -129 127h-15q-84 -86 -190 -182l-56 -39h-12v67q205 320 258 320z" />
    <glyph glyph-name="Edieresis" unicode="&#xcb;" horiz-adv-x="731" 
d="M464 1741q70 -19 70 -43v-41q0 -43 -320 -103l-10 -483v-70q0 -28 39 -28l264 28l12 -14v-14q0 -55 -315 -111l-55 -608v-27q0 -151 110 -151l371 151l24 -84q19 -20 -438 -178q-135 0 -178 277l68 594l-41 69q55 105 55 166l-14 350q0 138 -29 138q0 110 387 182z
M177 1954h41l60 -78q0 -51 -74 -96q-60 26 -86 96zM489 1964h41l59 -78q0 -51 -74 -96q-59 27 -86 96z" />
    <glyph glyph-name="Igrave" unicode="&#xcc;" horiz-adv-x="336" 
d="M262 1614q78 45 50.5 -158t-84 -549t-56.5 -757l27 -84v-27l-68 -55q-59 0 -84 98q29 33 87.5 775t98.5 742h29v15zM48 1903q70 49 500 -168l-111 -88l-413 178z" />
    <glyph glyph-name="Iacute" unicode="&#xcd;" horiz-adv-x="336" 
d="M262 1614q78 45 50.5 -158t-84 -549t-56.5 -757l27 -84v-27l-68 -55q-59 0 -84 98q29 33 87.5 775t98.5 742h29v15zM114 1562l-65 60q286 248 309 258l51 -51z" />
    <glyph glyph-name="Icircumflex" unicode="&#xce;" horiz-adv-x="336" 
d="M262 1614q78 45 50.5 -158t-84 -549t-56.5 -757l27 -84v-27l-68 -55q-59 0 -84 98q29 33 87.5 775t98.5 742h29v15zM277 1940h27q57 0 254 -387q-119 -51 -137 94q-99 123 -129 127h-15q-84 -86 -190 -182l-56 -39h-12v67q205 320 258 320z" />
    <glyph glyph-name="Idieresis" unicode="&#xcf;" horiz-adv-x="336" 
d="M262 1614q78 45 50.5 -158t-84 -549t-56.5 -757l27 -84v-27l-68 -55q-59 0 -84 98q29 33 87.5 775t98.5 742h29v15zM85 1860h41l60 -78q0 -51 -74 -96q-60 26 -86 96zM397 1870h41l59 -78q0 -51 -74 -96q-59 27 -86 96z" />
    <glyph glyph-name="Eth" unicode="&#xd0;" horiz-adv-x="731" 
d="M297 1888q98 -137 192 -137q277 -154 277 -457q0 -583 -608 -1231q-21 -137 -82 -137q-56 0 -56 68h-12l82 346q41 326 66 696l-176 41l-56 41v70l238 -68q14 211 24 436v152q0 180 111 180zM426 1044h12l43 -40v-41l-250 57l-57 -776h12q240 143 457 774l29 235v82
q4 314 -305 346q-99 0 -99 -194l-28 -389z" />
    <glyph glyph-name="Ntilde" unicode="&#xd1;" horiz-adv-x="950" 
d="M752 1759q67 0 67 -137l-26 -84l8 -225l69 -1065l-14 -55l27 -166q-27 -64 -56 -70h-41q-51 0 -165 416q-338 938 -402 966q-37 0 -55 -469l14 -194l-14 -125l29 -428l-41 -55h-15q-74 0 -84 41l29 401l-14 14l14 70v580q0 165 55 249v27l-55 70v41q27 55 82 55
q61 0 235 -442q84 -162 250 -705l111 -221h12v151l-76 1043l13 192l-13 70q11 41 56 55zM785 1858q-182 -234 -375 -178l-110 65q-187 217 -211 226l-13 4q-88 22 -149 -125l-6 -45l-76 8q39 235 248 262l41 -23q168 -247 280 -280l21 -4q151 -43 326 133l20 -6l10 -13z" />
    <glyph glyph-name="Ograve" unicode="&#xd2;" horiz-adv-x="809" 
d="M375 1548h14q76 0 111 -125q262 -204 262 -718q0 -519 -277 -693l-139 -12q-227 0 -303 455v166q96 774 207 774q0 43 125 153zM113 594l12 -14v-15l-12 -41q41 -442 247 -442q318 0 318 649v55q-72 596 -289 596q-182 0 -276 -788zM168 1809q70 49 500 -168l-111 -88
l-413 178z" />
    <glyph glyph-name="Oacute" unicode="&#xd3;" horiz-adv-x="809" 
d="M375 1548h14q76 0 111 -125q262 -204 262 -718q0 -519 -277 -693l-139 -12q-227 0 -303 455v166q96 774 207 774q0 43 125 153zM113 594l12 -14v-15l-12 -41q41 -442 247 -442q318 0 318 649v55q-72 596 -289 596q-182 0 -276 -788zM205 1525l-65 60q286 248 309 258
l51 -51z" />
    <glyph glyph-name="Ocircumflex" unicode="&#xd4;" horiz-adv-x="809" 
d="M375 1548h14q76 0 111 -125q262 -204 262 -718q0 -519 -277 -693l-139 -12q-227 0 -303 455v166q96 774 207 774q0 43 125 153zM113 594l12 -14v-15l-12 -41q41 -442 247 -442q318 0 318 649v55q-72 596 -289 596q-182 0 -276 -788zM409 1839h27q57 0 254 -387
q-119 -51 -137 94q-99 123 -129 127h-15q-84 -86 -190 -182l-56 -39h-12v67q205 320 258 320z" />
    <glyph glyph-name="Otilde" unicode="&#xd5;" horiz-adv-x="809" 
d="M375 1548h14q76 0 111 -125q262 -204 262 -718q0 -519 -277 -693l-139 -12q-227 0 -303 455v166q96 774 207 774q0 43 125 153zM113 594l12 -14v-15l-12 -41q41 -442 247 -442q318 0 318 649v55q-72 596 -289 596q-182 0 -276 -788zM941 1714q-182 -234 -375 -178
l-110 65q-187 217 -211 226l-13 4q-88 22 -149 -125l-6 -45l-76 8q39 235 248 262l41 -23q168 -247 280 -280l21 -4q151 -43 326 133l20 -6l10 -13z" />
    <glyph glyph-name="Odieresis" unicode="&#xd6;" horiz-adv-x="809" 
d="M375 1548h14q76 0 111 -125q262 -204 262 -718q0 -519 -277 -693l-139 -12q-227 0 -303 455v166q96 774 207 774q0 43 125 153zM113 594l12 -14v-15l-12 -41q41 -442 247 -442q318 0 318 649v55q-72 596 -289 596q-182 0 -276 -788zM220 1856h41l60 -78q0 -51 -74 -96
q-60 26 -86 96zM532 1866h41l59 -78q0 -51 -74 -96q-59 27 -86 96z" />
    <glyph glyph-name="multiply" unicode="&#xd7;" horiz-adv-x="659" 
d="M500 944l100 -92q-154 -172 -217 -344l166 -297q-19 -70 -43 -70q-53 -35 -197 246q-166 -231 -217 -274l-14 -13q-55 13 -55 56q73 90 249 338q-137 356 -178 399v43l41 41h41q41 0 111 -262l41 -99z" />
    <glyph glyph-name="Oslash" unicode="&#xd8;" horiz-adv-x="809" 
d="M375 1548h14q76 0 111 -125q262 -204 262 -718q0 -519 -277 -693l-139 -12q-227 0 -303 455v166q96 774 207 774q0 43 125 153zM113 594l12 -14v-15l-12 -41q41 -442 247 -442q318 0 318 649v55q-72 596 -289 596q-182 0 -276 -788zM608 1485h29v-27
q-139 -766 -332 -1300q-29 0 -29 -125l-38 -27l-72 14v56q201 401 375 1272q0 96 67 137z" />
    <glyph glyph-name="Ugrave" unicode="&#xd9;" horiz-adv-x="739" 
d="M145 1628h41l27 -29v-12q-80 -538 -80 -723v-82l12 -14l-12 -14v-68q45 -582 123 -582h14q199 0 305 775l13 165l-43 500l43 55q110 0 110 -165l-12 -375q-141 -1079 -430 -1079q-207 0 -207 983q33 665 96 665zM111 1909q70 49 500 -168l-111 -88l-413 178z" />
    <glyph glyph-name="Uacute" unicode="&#xda;" horiz-adv-x="739" 
d="M145 1628h41l27 -29v-12q-80 -538 -80 -723v-82l12 -14l-12 -14v-68q45 -582 123 -582h14q199 0 305 775l13 165l-43 500l43 55q110 0 110 -165l-12 -375q-141 -1079 -430 -1079q-207 0 -207 983q33 665 96 665zM342 1618l-65 60q286 248 309 258l51 -51z" />
    <glyph glyph-name="Ucircumflex" unicode="&#xdb;" horiz-adv-x="739" 
d="M145 1628h41l27 -29v-12q-80 -538 -80 -723v-82l12 -14l-12 -14v-68q45 -582 123 -582h14q199 0 305 775l13 165l-43 500l43 55q110 0 110 -165l-12 -375q-141 -1079 -430 -1079q-207 0 -207 983q33 665 96 665zM386 2126h27q57 0 254 -387q-119 -51 -137 94
q-99 123 -129 127h-15q-84 -86 -190 -182l-56 -39h-12v67q205 320 258 320z" />
    <glyph glyph-name="Udieresis" unicode="&#xdc;" horiz-adv-x="739" 
d="M145 1628h41l27 -29v-12q-80 -538 -80 -723v-82l12 -14l-12 -14v-68q45 -582 123 -582h14q199 0 305 775l13 165l-43 500l43 55q110 0 110 -165l-12 -375q-141 -1079 -430 -1079q-207 0 -207 983q33 665 96 665zM232 1866h41l60 -78q0 -51 -74 -96q-60 26 -86 96z
M544 1876h41l59 -78q0 -51 -74 -96q-59 27 -86 96z" />
    <glyph glyph-name="Yacute" unicode="&#xdd;" horiz-adv-x="758" 
d="M641 1698h55l56 -56q-68 -129 -131 -884q-107 -830 -347 -830v-14q-192 0 -221 152v14h29v14l125 -84q311 0 399 1272h-12l-195 -332q-151 -192 -192 -192h-43q-60 0 -68 192v125q8 572 137 664l41 -15v-41q-81 -227 -81 -692q14 -96 40 -96q248 231 408 803zM399 1708
l-65 60q286 248 309 258l51 -51z" />
    <glyph glyph-name="Thorn" unicode="&#xde;" horiz-adv-x="590" 
d="M106 1628l70 -43l-14 -123v-327h14q121 165 207 165h43q192 -155 93 -528t-214 -413t-158 18l-8 -432h-102l43 596q0 942 -41 1015q0 37 67 72zM172 553q74 -264 244 106l65 304q0 235 -125 235q-209 -172 -184 -645z" />
    <glyph glyph-name="germandbls" unicode="&#xdf;" horiz-adv-x="758" 
d="M190 199q304 -207 406 417q27 332 -84 332q-141 -51 -223 -104l-27 147q291 312 291 594q-27 64 -55 68q-140 0 -305 -207l-13 -428q-14 -410 -82 -1372q-43 -148 -131 -86q68 190 150 1988l159 119q127 80 236 96q119 0 152 -178q0 -112 -207 -526v-15l123 15
q104 0 153 -221q-20 -545 -248 -756q-133 -109 -297 -35z" />
    <glyph glyph-name="agrave" unicode="&#xe0;" horiz-adv-x="700" 
d="M420 1090h43l41 -29l-15 -205q39 -735 125 -735h27v-12q0 -76 -55 -99h-56q-55 0 -96 305h-14q-80 -471 -248 -471q-96 0 -96 293v150q0 637 233 719q39 0 111 84zM172 330v-193q0 -153 41 -153q90 0 180 718v15q-10 194 -41 194h-43q-137 0 -137 -581zM32 1487
q70 49 500 -168l-111 -88l-413 178z" />
    <glyph glyph-name="aacute" unicode="&#xe1;" horiz-adv-x="700" 
d="M420 1090h43l41 -29l-15 -205q39 -735 125 -735h27v-12q0 -76 -55 -99h-56q-55 0 -96 305h-14q-80 -471 -248 -471q-96 0 -96 293v150q0 637 233 719q39 0 111 84zM172 330v-193q0 -153 41 -153q90 0 180 718v15q-10 194 -41 194h-43q-137 0 -137 -581zM295 1378l-65 60
q286 248 309 258l51 -51z" />
    <glyph glyph-name="acircumflex" unicode="&#xe2;" horiz-adv-x="700" 
d="M420 1090h43l41 -29l-15 -205q39 -735 125 -735h27v-12q0 -76 -55 -99h-56q-55 0 -96 305h-14q-80 -471 -248 -471q-96 0 -96 293v150q0 637 233 719q39 0 111 84zM172 330v-193q0 -153 41 -153q90 0 180 718v15q-10 194 -41 194h-43q-137 0 -137 -581zM390 1504h27
q57 0 254 -387q-119 -51 -137 94q-99 123 -129 127h-15q-84 -86 -190 -182l-56 -39h-12v67q205 320 258 320z" />
    <glyph glyph-name="atilde" unicode="&#xe3;" horiz-adv-x="700" 
d="M420 1090h43l41 -29l-15 -205q39 -735 125 -735h27v-12q0 -76 -55 -99h-56q-55 0 -96 305h-14q-80 -471 -248 -471q-96 0 -96 293v150q0 637 233 719q39 0 111 84zM172 330v-193q0 -153 41 -153q90 0 180 718v15q-10 194 -41 194h-43q-137 0 -137 -581zM820 1532
q-182 -234 -375 -178l-110 65q-187 217 -211 226l-13 4q-88 22 -149 -125l-6 -45l-76 8q39 235 248 262l41 -23q168 -247 280 -280l21 -4q151 -43 326 133l20 -6l10 -13z" />
    <glyph glyph-name="adieresis" unicode="&#xe4;" horiz-adv-x="700" 
d="M420 1090h43l41 -29l-15 -205q39 -735 125 -735h27v-12q0 -76 -55 -99h-56q-55 0 -96 305h-14q-80 -471 -248 -471q-96 0 -96 293v150q0 637 233 719q39 0 111 84zM172 330v-193q0 -153 41 -153q90 0 180 718v15q-10 194 -41 194h-43q-137 0 -137 -581zM165 1377h41
l60 -78q0 -51 -74 -96q-60 26 -86 96zM477 1387h41l59 -78q0 -51 -74 -96q-59 27 -86 96z" />
    <glyph glyph-name="aring" unicode="&#xe5;" horiz-adv-x="700" 
d="M420 1090h43l41 -29l-15 -205q39 -735 125 -735h27v-12q0 -76 -55 -99h-56q-55 0 -96 305h-14q-80 -471 -248 -471q-96 0 -96 293v150q0 637 233 719q39 0 111 84zM172 330v-193q0 -153 41 -153q90 0 180 718v15q-10 194 -41 194h-43q-137 0 -137 -581zM386 1402
q105 0 174 -160q0 -209 -219 -244h-10q-193 0 -228 164v19q0 184 218 215q65 0 65 6zM169 1226v-29q0 -131 119 -170h20q158 0 185 190q0 119 -117 140l-45 8q-135 -12 -162 -139z" />
    <glyph glyph-name="ae" unicode="&#xe6;" horiz-adv-x="1087" 
d="M420 1090h43l41 -29l-15 -205q39 -735 125 -735h27v-12q0 -76 -55 -99h-56q-55 0 -96 305h-14q-80 -471 -248 -471q-96 0 -96 293v150q0 637 233 719q39 0 111 84zM172 330v-193q0 -153 41 -153q90 0 180 718v15q-10 194 -41 194h-43q-137 0 -137 -581zM752 1163
q221 -65 221 -221v-41q0 -309 -277 -428h-94v-29q0 -248 123 -346h43q78 0 221 221l12 -12h15q-99 -319 -277 -319q-162 0 -264 567q-22 0 -27 69q56 43 99 359q106 180 205 180zM586 651q12 -68 43 -68h84q166 78 166 318v14q-21 137 -127 137q-166 0 -166 -401z" />
    <glyph glyph-name="ccedilla" unicode="&#xe7;" 
d="M365 1206l41 -14v-27q-277 -186 -277 -512l-12 -125v-178q0 -213 205 -276q165 0 208 137h41l15 -41q0 -150 -221 -195q-224 0 -304 222q-43 112 -43 209v96q0 403 209 635zM345 43v-29q0 -149 236 -413l14 -56q-100 -264 -387 -264q-152 0 -152 111l166 -13h55
q193 46 193 166v13q0 36 -193 319l-43 150z" />
    <glyph glyph-name="egrave" unicode="&#xe8;" 
d="M322 1155q221 -65 221 -221v-41q0 -309 -277 -428h-94v-29q0 -248 123 -346h43q78 0 221 221l12 -12h15q-99 -319 -277 -319q-162 0 -264 567q-22 0 -27 69q56 43 99 359q106 180 205 180zM156 643q12 -68 43 -68h84q166 78 166 318v14q-21 137 -127 137
q-166 0 -166 -401zM5 1487q70 49 500 -168l-111 -88l-413 178z" />
    <glyph glyph-name="eacute" unicode="&#xe9;" 
d="M322 1155q221 -65 221 -221v-41q0 -309 -277 -428h-94v-29q0 -248 123 -346h43q78 0 221 221l12 -12h15q-99 -319 -277 -319q-162 0 -264 567q-22 0 -27 69q56 43 99 359q106 180 205 180zM156 643q12 -68 43 -68h84q166 78 166 318v14q-21 137 -127 137
q-166 0 -166 -401zM268 1378l-65 60q286 248 309 258l51 -51z" />
    <glyph glyph-name="ecircumflex" unicode="&#xea;" 
d="M322 1155q221 -65 221 -221v-41q0 -309 -277 -428h-94v-29q0 -248 123 -346h43q78 0 221 221l12 -12h15q-99 -319 -277 -319q-162 0 -264 567q-22 0 -27 69q56 43 99 359q106 180 205 180zM156 643q12 -68 43 -68h84q166 78 166 318v14q-21 137 -127 137
q-166 0 -166 -401zM349 1472h27q57 0 254 -387q-119 -51 -137 94q-99 123 -129 127h-15q-84 -86 -190 -182l-56 -39h-12v67q205 320 258 320z" />
    <glyph glyph-name="edieresis" unicode="&#xeb;" 
d="M322 1155q221 -65 221 -221v-41q0 -309 -277 -428h-94v-29q0 -248 123 -346h43q78 0 221 221l12 -12h15q-99 -319 -277 -319q-162 0 -264 567q-22 0 -27 69q56 43 99 359q106 180 205 180zM156 643q12 -68 43 -68h84q166 78 166 318v14q-21 137 -127 137
q-166 0 -166 -401zM120 1416h41l60 -78q0 -51 -74 -96q-60 26 -86 96zM432 1426h41l59 -78q0 -51 -74 -96q-59 27 -86 96z" />
    <glyph glyph-name="igrave" unicode="&#xec;" horiz-adv-x="285" 
d="M164 930l43 -56q-55 -55 -55 -303q6 -262 81 -510v-28l-40 -43h-41q-66 0 -99 651q0 289 84 289h27zM-178 1487l22 16q47 33 504 -276l84 -25l33 -47q-105 -59 -307.5 79t-231.5 124zM164 930l43 -56q-55 -55 -55 -303q6 -262 81 -510v-28l-40 -43h-41q-66 0 -99 651
q0 289 84 289h27z" />
    <glyph glyph-name="iacute" unicode="&#xed;" horiz-adv-x="285" 
d="M164 930l43 -56q-55 -55 -55 -303q6 -262 81 -510v-28l-40 -43h-41q-66 0 -99 651q0 289 84 289h27zM373 1391q-33 12 -246 -109t-322 -68l33 41l88 23q482 268 531 242l24 -17z" />
    <glyph glyph-name="icircumflex" unicode="&#xee;" horiz-adv-x="285" 
d="M164 930l43 -56q-55 -55 -55 -303q6 -262 81 -510v-28l-40 -43h-41q-66 0 -99 651q0 289 84 289h27zM170 1610h27q57 0 264 -514l18 -49q-139 0 -157 147q-107 244 -138 250h-14q-84 -88 -180 -305l-56 -43h-14v71q199 443 250 443z" />
    <glyph glyph-name="idieresis" unicode="&#xef;" horiz-adv-x="285" 
d="M164 930l43 -56q-55 -55 -55 -303q6 -262 81 -510v-28l-40 -43h-41q-66 0 -99 651q0 289 84 289h27zM-35 1270h43l60 -78q0 -51 -74 -96q-60 26 -88 96zM276 1280h46l57 -78q0 -51 -74 -96q-59 27 -88 96z" />
    <glyph glyph-name="eth" unicode="&#xf0;" horiz-adv-x="733" 
d="M369 1139q43 69 120 215l86 -41l-96 -211q439 -475 -22 -1120q-322 -158 -365 452v182q0 70 76 103q274 0 319 -416q224 391 -53 662l-61 -181l-80 35l53 223q-27 -10 -221 68q25 115 63 98zM395 266q-47 336 -149 336h-17q-45 -8 -45 -78v-102q45 -359 121 -377h45
q35 0 45 221z" />
    <glyph glyph-name="ntilde" unicode="&#xf1;" horiz-adv-x="637" 
d="M369 1214h12q164 0 194 -620v-250l15 -151l-15 -56l15 -125l-43 -26q-68 18 -68 96v457q0 483 -98 524h-12q-148 -76 -181 -608v-387l15 -56q-29 -82 -56 -82q-69 0 -84 56l15 372l-41 623v82l55 55q55 -20 55 -41l-14 -207l14 -14h27q0 203 195 358zM787 1532
q-182 -234 -375 -178l-110 65q-187 217 -211 226l-13 4q-88 22 -149 -125l-6 -45l-76 8q39 235 248 262l41 -23q168 -247 280 -280l21 -4q151 -43 326 133l20 -6l10 -13z" />
    <glyph glyph-name="ograve" unicode="&#xf2;" horiz-adv-x="553" 
d="M338 1079q129 0 180 -370l-14 -17v-82q-35 -637 -221 -637l-15 -12h-14q-207 47 -207 526q0 592 291 592zM131 555q31 -483 123 -483h14q117 0 152 497v195q0 186 -123 205q-166 -49 -166 -414zM-42 1487q70 49 500 -168l-111 -88l-413 178z" />
    <glyph glyph-name="oacute" unicode="&#xf3;" horiz-adv-x="553" 
d="M338 1079q129 0 180 -370l-14 -17v-82q-35 -637 -221 -637l-15 -12h-14q-207 47 -207 526q0 592 291 592zM131 555q31 -483 123 -483h14q117 0 152 497v195q0 186 -123 205q-166 -49 -166 -414zM221 1378l-65 60q286 248 309 258l51 -51z" />
    <glyph glyph-name="ocircumflex" unicode="&#xf4;" horiz-adv-x="553" 
d="M338 1079q129 0 180 -370l-14 -17v-82q-35 -637 -221 -637l-15 -12h-14q-207 47 -207 526q0 592 291 592zM131 555q31 -483 123 -483h14q117 0 152 497v195q0 186 -123 205q-166 -49 -166 -414zM310 1480h27q57 0 254 -387q-119 -51 -137 94q-99 123 -129 127h-15
q-84 -86 -190 -182l-56 -39h-12v67q205 320 258 320z" />
    <glyph glyph-name="otilde" unicode="&#xf5;" horiz-adv-x="553" 
d="M338 1079q129 0 180 -370l-14 -17v-82q-35 -637 -221 -637l-15 -12h-14q-207 47 -207 526q0 592 291 592zM131 555q31 -483 123 -483h14q117 0 152 497v195q0 186 -123 205q-166 -49 -166 -414zM879 1320q-182 -234 -375 -178l-110 65q-187 217 -211 226l-13 4
q-88 22 -149 -125l-6 -45l-76 8q39 235 248 262l41 -23q168 -247 280 -280l21 -4q151 -43 326 133l20 -6l10 -13z" />
    <glyph glyph-name="odieresis" unicode="&#xf6;" horiz-adv-x="553" 
d="M338 1079q129 0 180 -370l-14 -17v-82q-35 -637 -221 -637l-15 -12h-14q-207 47 -207 526q0 592 291 592zM131 555q31 -483 123 -483h14q117 0 152 497v195q0 186 -123 205q-166 -49 -166 -414zM122 1330h41l60 -78q0 -51 -74 -96q-60 26 -86 96zM434 1340h41l59 -78
q0 -51 -74 -96q-59 27 -86 96z" />
    <glyph glyph-name="divide" unicode="&#xf7;" horiz-adv-x="524" 
d="M284.765 805.43q63.8105 -18.1797 63.8105 -94.9404v-16.1602l-37.1436 -39.3906h-15.2383q-62.8574 0 -105.716 68.6807q3.80957 43.4307 94.2871 81.8105zM311.432 388.296q64.7627 -17.1699 64.7627 -41.4102v-43.4307l-64.7627 -56.5605
q-67.6201 19.1904 -67.6201 43.4307q0 78.7803 67.6201 97.9707zM466 585l41 6l4 -106q-188 35 -461 20l4 96z" />
    <glyph glyph-name="oslash" unicode="&#xf8;" horiz-adv-x="553" 
d="M338 1079q129 0 180 -370l-14 -17v-82q-35 -637 -221 -637l-15 -12h-14q-207 47 -207 526q0 592 291 592zM131 555q31 -483 123 -483h14q117 0 152 497v195q0 186 -123 205q-166 -49 -166 -414zM464 1285h29v-27q-139 -766 -332 -1300q-29 0 -29 -125l-38 -27l-72 14v56
q201 401 375 1272q0 96 67 137z" />
    <glyph glyph-name="ugrave" unicode="&#xf9;" horiz-adv-x="580" 
d="M520 1022l27 -29l-27 -110v-43l12 -111q-55 -745 -233 -745q-182 0 -264 706v82q0 105 55 123h29l41 -27l-15 -96v-137q0 -275 125 -541h29q96 39 123 524v140q0 98 -27 153q0 88 125 111zM-28 1487q70 49 500 -168l-111 -88l-413 178z" />
    <glyph glyph-name="uacute" unicode="&#xfa;" horiz-adv-x="580" 
d="M520 1022l27 -29l-27 -110v-43l12 -111q-55 -745 -233 -745q-182 0 -264 706v82q0 105 55 123h29l41 -27l-15 -96v-137q0 -275 125 -541h29q96 39 123 524v140q0 98 -27 153q0 88 125 111zM235 1378l-65 60q286 248 309 258l51 -51z" />
    <glyph glyph-name="ucircumflex" unicode="&#xfb;" horiz-adv-x="580" 
d="M520 1022l27 -29l-27 -110v-43l12 -111q-55 -745 -233 -745q-182 0 -264 706v82q0 105 55 123h29l41 -27l-15 -96v-137q0 -275 125 -541h29q96 39 123 524v140q0 98 -27 153q0 88 125 111zM273 1500h27q57 0 254 -387q-119 -51 -137 94q-99 123 -129 127h-15
q-84 -86 -190 -182l-56 -39h-12v67q205 320 258 320z" />
    <glyph glyph-name="udieresis" unicode="&#xfc;" horiz-adv-x="580" 
d="M520 1022l27 -29l-27 -110v-43l12 -111q-55 -745 -233 -745q-182 0 -264 706v82q0 105 55 123h29l41 -27l-15 -96v-137q0 -275 125 -541h29q96 39 123 524v140q0 98 -27 153q0 88 125 111zM134 1291h41l60 -78q0 -51 -74 -96q-60 26 -86 96zM446 1301h41l59 -78
q0 -51 -74 -96q-59 27 -86 96z" />
    <glyph glyph-name="yacute" unicode="&#xfd;" horiz-adv-x="686" 
d="M524 1022h43l56 -55q-27 -56 -27 -152v-98l-16 -359l16 -14v-14l-16 -137q0 -1010 -95 -1010h-55l-55 69q82 64 82 263q41 379 41 1065h-13q-20 -7 -194 -457q-60 -55 -125 -70q-123 0 -123 416q0 330 123 401l43 -14v-55q-72 -86 -72 -262v-84q0 -248 56 -248h16
q260 442 260 731zM225 1033l-65 60q286 248 309 258l51 -51z" />
    <glyph glyph-name="thorn" unicode="&#xfe;" horiz-adv-x="494" 
d="M293 930q143 0 172 -418q0 -221 -297 -467v-16q0 -314 4 -287l-43 -29h-12q-84 0 -62 140l-39 1290l95 22q-17 -452 -21 -428q74 193 203 193zM156 432v-250h12q201 103 190 365q2 260 -79 272h-13q-110 -90 -110 -387z" />
    <glyph glyph-name="ydieresis" unicode="&#xff;" horiz-adv-x="686" 
d="M524 1022h43l56 -55q-27 -56 -27 -152v-98l-16 -359l16 -14v-14l-16 -137q0 -1010 -95 -1010h-55l-55 69q82 64 82 263q41 379 41 1065h-13q-20 -7 -194 -457q-60 -55 -125 -70q-123 0 -123 416q0 330 123 401l43 -14v-55q-72 -86 -72 -262v-84q0 -248 56 -248h16
q260 442 260 731zM226 1330h41l60 -78q0 -51 -74 -96q-60 26 -86 96zM538 1340h41l59 -78q0 -51 -74 -96q-59 27 -86 96z" />
    <glyph glyph-name="Amacron" unicode="&#x100;" horiz-adv-x="788" 
d="M541 1700q149 -4 155 -1376l43 -443l-69 -12h-29l-41 41v512l-14 207h-13q-331 -41 -362 -140q-53 -503 -80 -509h-55l-56 55q68 526 222 1161q106 524 299 504zM256 725l68 -53q276 61 276 94v250l14 180l-34 139q-39 166 -82 166q-88 0 -242 -776zM684 1864l41 6
l2 -104q-186 34 -461 20l7 94z" />
    <glyph glyph-name="amacron" unicode="&#x101;" horiz-adv-x="700" 
d="M420 1090h43l41 -29l-15 -205q39 -735 125 -735h27v-12q0 -76 -55 -99h-56q-55 0 -96 305h-14q-80 -471 -248 -471q-96 0 -96 293v150q0 637 233 719q39 0 111 84zM172 330v-193q0 -153 41 -153q90 0 180 718v15q-10 194 -41 194h-43q-137 0 -137 -581zM536 1358l41 6
l2 -104q-186 34 -461 20l7 94z" />
    <glyph glyph-name="Abreve" unicode="&#x102;" horiz-adv-x="788" 
d="M541 1700q149 -4 155 -1376l43 -443l-69 -12h-29l-41 41v512l-14 207h-13q-331 -41 -362 -140q-53 -503 -80 -509h-55l-56 55q68 526 222 1161q106 524 299 504zM256 725l68 -53q276 61 276 94v250l14 180l-34 139q-39 166 -82 166q-88 0 -242 -776zM266 1991l39 43
q125 -178 183.5 -181t207.5 208l62 -11q-240 -540 -492 -59z" />
    <glyph glyph-name="abreve" unicode="&#x103;" horiz-adv-x="700" 
d="M451 1172h43l41 -29l-15 -205q39 -735 125 -735h27v-12q0 -76 -55 -99h-56q-55 0 -96 305h-14q-80 -471 -248 -471q-96 0 -96 293v150q0 637 233 719q39 0 111 84zM203 412v-193q0 -153 41 -153q90 0 180 718v15q-10 194 -41 194h-43q-137 0 -137 -581zM97 1402l39 43
q125 -178 183.5 -181t207.5 208l62 -11q-240 -540 -492 -59z" />
    <glyph glyph-name="Aogonek" unicode="&#x104;" horiz-adv-x="788" 
d="M541 1700q149 -4 155 -1376l43 -443l-69 -12h-29l-41 41v512l-14 207h-13q-331 -41 -362 -140q-53 -503 -80 -509h-55l-56 55q68 526 222 1161q106 524 299 504zM256 725l68 -53q276 61 276 94v250l14 180l-34 139q-39 166 -82 166q-88 0 -242 -776zM664 -100l-68 -168
q-26 -145 72 -92q45 0 96 103l64 -58q-88 -155 -215 -155h-15q-84 10 -96 204q0 39 88 230z" />
    <glyph glyph-name="aogonek" unicode="&#x105;" horiz-adv-x="700" 
d="M420 1090h43l41 -29l-15 -205q39 -735 125 -735h27v-12q0 -76 -55 -99h-56q-55 0 -96 305h-14q-80 -471 -248 -471q-96 0 -96 293v150q0 637 233 719q39 0 111 84zM172 330v-193q0 -153 41 -153q90 0 180 718v15q-10 194 -41 194h-43q-137 0 -137 -581zM571 24l-68 -168
q-26 -145 72 -92q45 0 96 103l64 -58q-88 -155 -215 -155h-15q-84 10 -96 204q0 39 88 230z" />
    <glyph glyph-name="Cacute" unicode="&#x106;" horiz-adv-x="731" 
d="M653 1741q84 -29 84 -55v-29q0 -27 -125 -27q-235 -123 -321 -401q-158 -314 -158 -701v-14q27 -414 193 -414l43 -14h82q79 35 180 332h41v-15q-72 -428 -248 -428q-234 0 -375 347l-12 137q0 598 325 1061q181 221 291 221zM405 1671l-65 60q286 248 309 258l51 -51z
" />
    <glyph glyph-name="cacute" unicode="&#x107;" 
d="M365 1206l41 -14v-27q-277 -186 -277 -512l-12 -125v-178q0 -213 205 -276q165 0 208 137h41l15 -41q0 -150 -221 -195q-224 0 -304 222q-43 112 -43 209v96q0 403 209 635zM207 1378l-65 60q286 248 309 258l51 -51z" />
    <glyph glyph-name="Ccircumflex" unicode="&#x108;" horiz-adv-x="731" 
d="M653 1741q84 -29 84 -55v-29q0 -27 -125 -27q-235 -123 -321 -401q-158 -314 -158 -701v-14q27 -414 193 -414l43 -14h82q79 35 180 332h41v-15q-72 -428 -248 -428q-234 0 -375 347l-12 137q0 598 325 1061q181 221 291 221zM586 2136h27q57 0 254 -387
q-119 -51 -137 94q-99 123 -129 127h-15q-84 -86 -190 -182l-56 -39h-12v67q205 320 258 320z" />
    <glyph glyph-name="ccircumflex" unicode="&#x109;" 
d="M365 1206l41 -14v-27q-277 -186 -277 -512l-12 -125v-178q0 -213 205 -276q165 0 208 137h41l15 -41q0 -150 -221 -195q-224 0 -304 222q-43 112 -43 209v96q0 403 209 635zM283 1741h27q57 0 254 -387q-119 -51 -137 94q-99 123 -129 127h-15q-84 -86 -190 -182l-56 -39
h-12v67q205 320 258 320z" />
    <glyph glyph-name="Cdotaccent" unicode="&#x10a;" horiz-adv-x="731" 
d="M653 1741q84 -29 84 -55v-29q0 -27 -125 -27q-235 -123 -321 -401q-158 -314 -158 -701v-14q27 -414 193 -414l43 -14h82q79 35 180 332h41v-15q-72 -428 -248 -428q-234 0 -375 347l-12 137q0 598 325 1061q181 221 291 221zM537 1976q86 -37 94 -92v-55
q-27 -74 -68 -74q-82 0 -110 110q0 56 84 111z" />
    <glyph glyph-name="cdotaccent" unicode="&#x10b;" 
d="M365 1206l41 -14v-27q-277 -186 -277 -512l-12 -125v-178q0 -213 205 -276q165 0 208 137h41l15 -41q0 -150 -221 -195q-224 0 -304 222q-43 112 -43 209v96q0 403 209 635zM318 1620q86 -37 94 -92v-55q-27 -74 -68 -74q-82 0 -110 110q0 56 84 111z" />
    <glyph glyph-name="Ccaron" unicode="&#x10c;" horiz-adv-x="731" 
d="M653 1741q84 -29 84 -55v-29q0 -27 -125 -27q-235 -123 -321 -401q-158 -314 -158 -701v-14q27 -414 193 -414l43 -14h82q79 35 180 332h41v-15q-72 -428 -248 -428q-234 0 -375 347l-12 137q0 598 325 1061q181 221 291 221zM539 1778q-51 0 -203 227v60h15l55 -37
q129 -90 133 -105h17q30 7 86 60q18 129 155 129l-18 -45q-154 -289 -211 -289h-29z" />
    <glyph glyph-name="ccaron" unicode="&#x10d;" 
d="M365 1206l41 -14v-27q-277 -186 -277 -512l-12 -125v-178q0 -213 205 -276q165 0 208 137h41l15 -41q0 -150 -221 -195q-224 0 -304 222q-43 112 -43 209v96q0 403 209 635zM283 1364q-51 0 -203 227v60h15l55 -37q129 -90 133 -105h17q30 7 86 60q18 129 155 129
l-18 -45q-154 -289 -211 -289h-29z" />
    <glyph glyph-name="Dcaron" unicode="&#x10e;" horiz-adv-x="731" 
d="M258 1769q100 -139 193 -139q276 -151 276 -456q39 -463 -569 -1111q-21 -137 -82 -137q-56 0 -56 68h-12l82 346q29 424 57 1098v151q0 180 111 180zM174 244h12q240 143 418 653l29 236v84q-53 344 -305 344q-99 0 -99 -193zM394 1782q-51 0 -203 227v60h15l55 -37
q129 -90 133 -105h17q30 7 86 60q18 129 155 129l-18 -45q-154 -289 -211 -289h-29z" />
    <glyph glyph-name="dcaron" unicode="&#x10f;" horiz-adv-x="1010" 
d="M514 1526q78 0 96 -68l-28 -98q34 -1403 63 -1370l-45 -33q-57 25 -61 25l-13 577l-12 14h-14q-84 -581 -250 -581h-27q-166 0 -166 332q0 241 236 471q194 45 194 151v193l-28 319q26 62 55 68zM168 379v-137q0 -107 70 -140h12q82 0 194 609l-12 14h-55
q-209 -127 -209 -346zM897 1550q-101 -344 -129 -374h-11l-32 43q0 57 32 110q50 303 87 303q53 -26 53 -82z" />
    <glyph glyph-name="Dcroat" unicode="&#x110;" horiz-adv-x="731" 
d="M258 1769q100 -139 193 -139q276 -151 276 -456q39 -463 -569 -1111q-21 -137 -82 -137q-56 0 -56 68h-12l82 346q29 424 57 1098v151q0 180 111 180zM174 244h12q240 143 418 653l29 236v84q-53 344 -305 344q-99 0 -99 -193zM367 1080l41 6l2 -104q-186 34 -461 20
l7 94z" />
    <glyph glyph-name="dcroat" unicode="&#x111;" horiz-adv-x="651" 
d="M514 1526q78 0 96 -68l-28 -98q34 -1403 63 -1370l-45 -33q-57 25 -61 25l-13 577l-12 14h-14q-84 -581 -250 -581h-27q-166 0 -166 332q0 241 236 471q194 45 194 151v193l-28 319q26 62 55 68zM168 379v-137q0 -107 70 -140h12q82 0 194 609l-12 14h-55
q-209 -127 -209 -346zM860 1280h13l43 -41v-41q-371 -41 -596 -96l-56 41v69z" />
    <glyph glyph-name="Emacron" unicode="&#x112;" horiz-adv-x="735" 
d="M469 1741q70 -19 70 -43v-41q0 -43 -320 -103l-10 -483v-70q0 -28 39 -28l264 28l12 -14v-14q0 -55 -315 -111l-55 -608v-27q0 -151 110 -151l371 151l24 -84q19 -20 -438 -178q-135 0 -178 277l68 594l-41 69q55 105 55 166l-14 350q0 138 -29 138q0 110 387 182z
M547 1862l41 6l2 -104q-186 34 -461 20l7 94z" />
    <glyph glyph-name="emacron" unicode="&#x113;" 
d="M322 1155q221 -65 221 -221v-41q0 -309 -277 -428h-94v-29q0 -248 123 -346h43q78 0 221 221l12 -12h15q-99 -319 -277 -319q-162 0 -264 567q-22 0 -27 69q56 43 99 359q106 180 205 180zM156 643q12 -68 43 -68h84q166 78 166 318v14q-21 137 -127 137
q-166 0 -166 -401zM511 1358l41 6l2 -104q-186 34 -461 20l7 94z" />
    <glyph glyph-name="Ebreve" unicode="&#x114;" horiz-adv-x="735" 
d="M469 1741q70 -19 70 -43v-41q0 -43 -320 -103l-10 -483v-70q0 -28 39 -28l264 28l12 -14v-14q0 -55 -315 -111l-55 -608v-27q0 -151 110 -151l371 151l24 -84q19 -20 -438 -178q-135 0 -178 277l68 594l-41 69q55 105 55 166l-14 350q0 138 -29 138q0 110 387 182z
M56 1985l39 43q125 -178 183.5 -181t207.5 208l62 -11q-240 -540 -492 -59z" />
    <glyph glyph-name="ebreve" unicode="&#x115;" 
d="M322 1155q221 -65 221 -221v-41q0 -309 -277 -428h-94v-29q0 -248 123 -346h43q78 0 221 221l12 -12h15q-99 -319 -277 -319q-162 0 -264 567q-22 0 -27 69q56 43 99 359q106 180 205 180zM156 643q12 -68 43 -68h84q166 78 166 318v14q-21 137 -127 137
q-166 0 -166 -401zM114 1437l39 43q125 -178 183.5 -181t207.5 208l62 -11q-240 -540 -492 -59z" />
    <glyph glyph-name="Edotaccent" unicode="&#x116;" horiz-adv-x="735" 
d="M469 1741q70 -19 70 -43v-41q0 -43 -320 -103l-10 -483v-70q0 -28 39 -28l264 28l12 -14v-14q0 -55 -315 -111l-55 -608v-27q0 -151 110 -151l371 151l24 -84q19 -20 -438 -178q-135 0 -178 277l68 594l-41 69q55 105 55 166l-14 350q0 138 -29 138q0 110 387 182z
M287 1954q86 -37 94 -92v-55q-27 -74 -68 -74q-82 0 -110 110q0 56 84 111z" />
    <glyph glyph-name="edotaccent" unicode="&#x117;" 
d="M322 1155q221 -65 221 -221v-41q0 -309 -277 -428h-94v-29q0 -248 123 -346h43q78 0 221 221l12 -12h15q-99 -319 -277 -319q-162 0 -264 567q-22 0 -27 69q56 43 99 359q106 180 205 180zM156 643q12 -68 43 -68h84q166 78 166 318v14q-21 137 -127 137
q-166 0 -166 -401zM318 1620q86 -37 94 -92v-55q-27 -74 -68 -74q-82 0 -110 110q0 56 84 111z" />
    <glyph glyph-name="Eogonek" unicode="&#x118;" horiz-adv-x="735" 
d="M469 1741q70 -19 70 -43v-41q0 -43 -320 -103l-10 -483v-70q0 -28 39 -28l264 28l12 -14v-14q0 -55 -315 -111l-55 -608v-27q0 -151 110 -151l371 151l24 -84q19 -20 -438 -178q-135 0 -178 277l68 594l-41 69q55 105 55 166l-14 350q0 138 -29 138q0 110 387 182z
M410 47l-68 -168q-26 -145 72 -92q45 0 96 103l64 -58q-88 -155 -215 -155h-15q-84 10 -96 204q0 39 88 230z" />
    <glyph glyph-name="eogonek" unicode="&#x119;" 
d="M322 1155q221 -65 221 -221v-41q0 -309 -277 -428h-94v-29q0 -248 123 -346h43q78 0 221 221l12 -12h15q-99 -319 -277 -319q-162 0 -264 567q-22 0 -27 69q56 43 99 359q106 180 205 180zM156 643q12 -68 43 -68h84q166 78 166 318v14q-21 137 -127 137
q-166 0 -166 -401zM422 10l-68 -168q-26 -145 72 -92q45 0 96 103l64 -58q-88 -155 -215 -155h-15q-84 10 -96 204q0 39 88 230z" />
    <glyph glyph-name="Ecaron" unicode="&#x11a;" horiz-adv-x="735" 
d="M469 1741q70 -19 70 -43v-41q0 -43 -320 -103l-10 -483v-70q0 -28 39 -28l264 28l12 -14v-14q0 -55 -315 -111l-55 -608v-27q0 -151 110 -151l371 151l24 -84q19 -20 -438 -178q-135 0 -178 277l68 594l-41 69q55 105 55 166l-14 350q0 138 -29 138q0 110 387 182z
M296 1780q-51 0 -203 227v60h15l55 -37q129 -90 133 -105h17q30 7 86 60q18 129 155 129l-18 -45q-154 -289 -211 -289h-29z" />
    <glyph glyph-name="ecaron" unicode="&#x11b;" 
d="M322 1155q221 -65 221 -221v-41q0 -309 -277 -428h-94v-29q0 -248 123 -346h43q78 0 221 221l12 -12h15q-99 -319 -277 -319q-162 0 -264 567q-22 0 -27 69q56 43 99 359q106 180 205 180zM156 643q12 -68 43 -68h84q166 78 166 318v14q-21 137 -127 137
q-166 0 -166 -401zM298 1197q-51 0 -203 227v60h15l55 -37q129 -90 133 -105h17q30 7 86 60q18 129 155 129l-18 -45q-154 -289 -211 -289h-29z" />
    <glyph glyph-name="Gcircumflex" unicode="&#x11c;" horiz-adv-x="784" 
d="M676 1737q69 -17 69 -41v-43q-421 0 -503 -391q-111 -353 -111 -541v-277q55 -399 236 -399q165 277 165 647v72q0 160 -165 221l-15 39q0 98 277 111q37 0 69 -68l-98 -111l29 -180q-68 -842 -277 -842q-317 146 -317 537v111q0 589 282 1003q168 152 359 152zM602 2097
h27q57 0 254 -387q-119 -51 -137 94q-99 123 -129 127h-15q-84 -86 -190 -182l-56 -39h-12v67q205 320 258 320z" />
    <glyph glyph-name="gcircumflex" unicode="&#x11d;" horiz-adv-x="696" 
d="M590 1114h26l43 -41v-69q-98 -185 -98 -457l17 -815q0 -623 -195 -623q0 -27 -70 -27q-166 35 -166 152v14h27q92 -69 154 -69q151 0 151 456v676l-12 99h-29q-104 -387 -303 -387h-16q-47 6 -94 206q0 416 260 734l209 81q0 70 96 70zM135 395v-221q0 -41 55 -41
q113 0 277 664v123q-236 0 -320 -414zM547 1500h27q57 0 254 -387q-119 -51 -137 94q-99 123 -129 127h-15q-84 -86 -190 -182l-56 -39h-12v67q205 320 258 320z" />
    <glyph glyph-name="Gbreve" unicode="&#x11e;" horiz-adv-x="784" 
d="M676 1737q69 -17 69 -41v-43q-421 0 -503 -391q-111 -353 -111 -541v-277q55 -399 236 -399q165 277 165 647v72q0 160 -165 221l-15 39q0 98 277 111q37 0 69 -68l-98 -111l29 -180q-68 -842 -277 -842q-317 146 -317 537v111q0 589 282 1003q168 152 359 152zM153 1915
l39 43q125 -178 183.5 -181t207.5 208l62 -11q-240 -540 -492 -59z" />
    <glyph glyph-name="gbreve" unicode="&#x11f;" horiz-adv-x="696" 
d="M590 1114h26l43 -41v-69q-98 -185 -98 -457l17 -815q0 -623 -195 -623q0 -27 -70 -27q-166 35 -166 152v14h27q92 -69 154 -69q151 0 151 456v676l-12 99h-29q-104 -387 -303 -387h-16q-47 6 -94 206q0 416 260 734l209 81q0 70 96 70zM135 395v-221q0 -41 55 -41
q113 0 277 664v123q-236 0 -320 -414zM139 1326l39 43q125 -178 183.5 -181t207.5 208l62 -11q-240 -540 -492 -59z" />
    <glyph glyph-name="Gdotaccent" unicode="&#x120;" horiz-adv-x="784" 
d="M676 1737q69 -17 69 -41v-43q-421 0 -503 -391q-111 -353 -111 -541v-277q55 -399 236 -399q165 277 165 647v72q0 160 -165 221l-15 39q0 98 277 111q37 0 69 -68l-98 -111l29 -180q-68 -842 -277 -842q-317 146 -317 537v111q0 589 282 1003q168 152 359 152zM441 1991
q86 -37 94 -92v-55q-27 -74 -68 -74q-82 0 -110 110q0 56 84 111z" />
    <glyph glyph-name="gdotaccent" unicode="&#x121;" horiz-adv-x="696" 
d="M590 1114h26l43 -41v-69q-98 -185 -98 -457l17 -815q0 -623 -195 -623q0 -27 -70 -27q-166 35 -166 152v14h27q92 -69 154 -69q151 0 151 456v676l-12 99h-29q-104 -387 -303 -387h-16q-47 6 -94 206q0 416 260 734l209 81q0 70 96 70zM135 395v-221q0 -41 55 -41
q113 0 277 664v123q-236 0 -320 -414zM342 1620q86 -37 94 -92v-55q-27 -74 -68 -74q-82 0 -110 110q0 56 84 111z" />
    <glyph glyph-name="Gcommaaccent" unicode="&#x122;" horiz-adv-x="784" 
d="M676 1737q69 -17 69 -41v-43q-421 0 -503 -391q-111 -353 -111 -541v-277q55 -399 236 -399q165 277 165 647v72q0 160 -165 221l-15 39q0 98 277 111q37 0 69 -68l-98 -111l29 -180q-68 -842 -277 -842q-317 146 -317 537v111q0 589 282 1003q168 152 359 152zM391 -109
q129 -192 -86 -389h-12q-29 0 -29 41q170 228 78 318z" />
    <glyph glyph-name="gcommaaccent" unicode="&#x123;" horiz-adv-x="696" 
d="M590 1114h26l43 -41v-69q-98 -185 -98 -457l17 -815q0 -623 -195 -623q0 -27 -70 -27q-166 35 -166 152v14h27q92 -69 154 -69q151 0 151 456v676l-12 99h-29q-104 -387 -303 -387h-16q-47 6 -94 206q0 416 260 734l209 81q0 70 96 70zM135 395v-221q0 -41 55 -41
q113 0 277 664v123q-236 0 -320 -414zM596 1626q-101 -344 -129 -374h-11l-32 43q0 57 32 110q50 303 87 303q53 -26 53 -82z" />
    <glyph glyph-name="Hcircumflex" unicode="&#x124;" horiz-adv-x="770" 
d="M254 1698h12l56 -56v-28q-74 0 -140 -785l43 -14q332 25 332 55q31 744 84 744l41 16q70 -18 70 -43q-82 -143 -113 -882q-18 -760 -96 -760h-15l-41 41l41 401h-14l14 12v140l15 206l-15 15q-372 -27 -372 -111l-56 -622v-82l-55 -43q-41 0 -41 55h-14l82 733l-27 84
q66 0 98 647q62 277 111 277zM367 2075h27q57 0 254 -387q-119 -51 -137 94q-99 123 -129 127h-15q-84 -86 -190 -182l-56 -39h-12v67q205 320 258 320z" />
    <glyph glyph-name="hcircumflex" unicode="&#x125;" horiz-adv-x="719" 
d="M92 1647h41l41 -41v-15l-27 -110v-97l27 -692l14 -41h27q92 346 277 346q133 0 153 -761l27 -152l-41 -70q-72 0 -84 140v96q0 622 -111 622q-170 -65 -207 -663q9 -195 29 -195q-29 -61 -55 -67h-43q-68 39 -68 110l27 68q-58 1425 -111 1425q23 62 84 97zM549 1470h27
q57 0 254 -387q-119 -51 -137 94q-99 123 -129 127h-15q-84 -86 -190 -182l-56 -39h-12v67q205 320 258 320z" />
    <glyph glyph-name="hbar" unicode="&#x127;" horiz-adv-x="719" 
d="M92 1647h41l41 -41v-15l-27 -110v-97l27 -692l14 -41h27q92 346 277 346q133 0 153 -761l27 -152l-41 -70q-72 0 -84 140v96q0 622 -111 622q-170 -65 -207 -663q9 -195 29 -195q-29 -61 -55 -67h-43q-68 39 -68 110l27 68q-58 1425 -111 1425q23 62 84 97zM341 1160
l41 6l2 -104q-186 34 -461 20l7 94z" />
    <glyph glyph-name="Itilde" unicode="&#x128;" horiz-adv-x="336" 
d="M262 1614q78 45 50.5 -158t-84 -549t-56.5 -757l27 -84v-27l-68 -55q-59 0 -84 98q29 33 87.5 775t98.5 742h29v15zM759.012 1691.27q-133.4 -210.978 -274.863 -160.487l-80.627 58.6055q-137.066 195.649 -154.657 203.764l-9.52832 3.60645
q-64.502 19.8359 -109.213 -112.701l-4.39844 -40.5723l-55.7051 7.21289q28.5859 211.878 181.776 236.222l30.0518 -20.7363q123.14 -222.698 205.232 -252.451l15.3926 -3.60742q110.678 -38.7686 238.948 119.915l14.6592 -5.41016l7.33008 -11.7207z" />
    <glyph glyph-name="itilde" unicode="&#x129;" horiz-adv-x="285" 
d="M164 930l43 -56q-55 -55 -55 -303q6 -262 81 -510v-28l-40 -43h-41q-66 0 -99 651q0 289 84 289h27zM610 1532q-182 -234 -374 -178l-111 65q-186 217 -211 226l-12 4q-88 22 -150 -125l-6 -45l-76 8q39 235 248 262l41 -23q168 -247 281 -280l20 -4q152 -43 326 133
l20 -6l10 -13z" />
    <glyph glyph-name="Imacron" unicode="&#x12a;" horiz-adv-x="336" 
d="M262 1614q78 45 50.5 -158t-84 -549t-56.5 -757l27 -84v-27l-68 -55q-59 0 -84 98q29 33 87.5 775t98.5 742h29v15zM476 1790l41 6l2 -104q-186 34 -461 20l7 94z" />
    <glyph glyph-name="imacron" unicode="&#x12b;" horiz-adv-x="285" 
d="M164 930l43 -56q-55 -55 -55 -303q6 -262 81 -510v-28l-40 -43h-41q-66 0 -99 651q0 289 84 289h27zM330 1358l41 6l2 -104q-187 34 -461 20l6 94z" />
    <glyph glyph-name="Ibreve" unicode="&#x12c;" horiz-adv-x="336" 
d="M262 1614q78 45 50.5 -158t-84 -549t-56.5 -757l27 -84v-27l-68 -55q-59 0 -84 98q29 33 87.5 775t98.5 742h29v15zM100 1880l39 43q125 -178 183.5 -181t207.5 208l62 -11q-240 -540 -492 -59z" />
    <glyph glyph-name="ibreve" unicode="&#x12d;" horiz-adv-x="285" 
d="M164 930l43 -56q-55 -55 -55 -303q6 -262 81 -510v-28l-40 -43h-41q-66 0 -99 651q0 289 84 289h27zM-66 1282l39 43q125 -178 183.5 -181t208.5 208l61 -11q-240 -540 -492 -59z" />
    <glyph glyph-name="Iogonek" unicode="&#x12e;" horiz-adv-x="336" 
d="M262 1614q78 45 50.5 -158t-84 -549t-56.5 -757l27 -84v-27l-68 -55q-59 0 -84 98q29 33 87.5 775t98.5 742h29v15zM132 3l-68 -168q-26 -145 72 -92q45 0 96 103l64 -58q-88 -155 -215 -155h-15q-84 10 -96 204q0 39 88 230z" />
    <glyph glyph-name="iogonek" unicode="&#x12f;" horiz-adv-x="285" 
d="M164 1290q53 0 98 -55q0 -41 -98 -96q-37 0 -68 67q27 76 68 84zM164 930l43 -56q-55 -55 -55 -303q6 -262 81 -510v-28l-40 -43h-41q-66 0 -99 651q0 289 84 289h27zM194 39l-68 -168q-26 -145 72 -92q45 0 96 103l64 -58q-88 -155 -215 -155h-15q-84 10 -96 204
q0 39 88 230z" />
    <glyph glyph-name="Idotaccent" unicode="&#x130;" horiz-adv-x="336" 
d="M262 1614q78 45 50.5 -158t-84 -549t-56.5 -757l27 -84v-27l-68 -55q-59 0 -84 98q29 33 87.5 775t98.5 742h29v15zM271 1886q86 -37 94 -92v-55q-27 -74 -68 -74q-82 0 -110 110q0 56 84 111z" />
    <glyph glyph-name="dotlessi" unicode="&#x131;" horiz-adv-x="285" 
d="M164 930l43 -56q-55 -55 -55 -303q6 -262 81 -510v-28l-40 -43h-41q-66 0 -99 651q0 289 84 289h27z" />
    <glyph glyph-name="Jcircumflex" unicode="&#x134;" horiz-adv-x="592" 
d="M518 1774h27l-15 -152l-4 -725q-32 -870 -235 -870q0 -27 -123 -27q-139 25 -139 193l14 55h41q33 -152 84 -152h82q164 0 194 844v12l5 670q26 152 69 152zM495 2048h27q57 0 254 -387q-119 -51 -137 94q-99 123 -129 127h-15q-84 -86 -190 -182l-56 -39h-12v67
q205 320 258 320z" />
    <glyph glyph-name="jcircumflex" unicode="&#x135;" horiz-adv-x="418" 
d="M184 967l41 -39l-14 -183q96 -743 96 -978v-72q0 -719 -317 -719q-152 80 -152 221v84h27l98 -194l12 -13h29q221 0 221 719q-41 680 -139 1106q20 68 98 68zM145 1374h27q57 0 254 -387q-119 -51 -137 94q-99 123 -129 127h-15q-84 -86 -190 -182l-55 -39h-13v68
q205 319 258 319z" />
    <glyph glyph-name="Kcommaaccent" unicode="&#x136;" horiz-adv-x="696" 
d="M184 1686q45 -15 56 -56l-29 -207v-718h41q332 581 332 800q59 56 110 56l56 -70q-97 -133 -443 -885v-41q119 -512 320 -512v-55l-70 -12q-166 0 -332 483h-14l-70 -594l-12 -14h-55q-35 0 -43 55q49 0 98 967l-14 762zM348 -109q129 -192 -86 -389h-12q-29 0 -29 41
q170 228 78 318z" />
    <glyph glyph-name="kcommaaccent" unicode="&#x137;" horiz-adv-x="731" 
d="M80 1489q61 -25 70 -55l-29 -152l29 -580h12q98 74 250 373l14 15h27l55 -56v-28q-318 -426 -318 -484v-14q0 -168 414 -442h14l84 28v-55q-26 -49 -84 -70q-124 27 -428 332l-14 -14v-82q6 -103 41 -139q-27 -82 -55 -82h-27l-69 67l14 99v110q0 234 -29 234l15 55
l-41 858h-15q0 25 70 82zM364 -109q129 -192 -86 -389h-12q-29 0 -29 41q170 228 78 318z" />
    <glyph glyph-name="Lacute" unicode="&#x139;" horiz-adv-x="711" 
d="M244 1731l55 -43l-43 -193l8 -410v-206q0 -326 -55 -734v-12l27 -29h249l138 41l28 -41q0 -124 -514 -124q-55 0 -55 55h-12q110 287 110 844l-6 796q14 56 70 56zM422 1371l-65 60q286 248 309 258l51 -51z" />
    <glyph glyph-name="lacute" unicode="&#x13a;" horiz-adv-x="289" 
d="M150 1614l47 12l-11 -252l-4 -225l11 -647l-13 -277l29 -166q0 -26 -72 -84l-67 56q28 71 28 291v26l21 1221q24 45 31 45zM17 1575l-65 60q286 248 309 258l51 -51z" />
    <glyph glyph-name="Lcommaaccent" unicode="&#x13b;" horiz-adv-x="711" 
d="M244 1731l55 -43l-43 -193l8 -410v-206q0 -326 -55 -734v-12l27 -29h249l138 41l28 -41q0 -124 -514 -124q-55 0 -55 55h-12q110 287 110 844l-6 796q14 56 70 56zM354 -109q129 -192 -86 -389h-12q-29 0 -29 41q170 228 78 318z" />
    <glyph glyph-name="lcommaaccent" unicode="&#x13c;" horiz-adv-x="289" 
d="M150 1614l47 12l-11 -252l-4 -225l11 -647l-13 -277l29 -166q0 -26 -72 -84l-67 56q28 71 28 291v26l21 1221q24 45 31 45zM146 -109q129 -192 -86 -389h-12q-29 0 -29 41q170 228 78 318z" />
    <glyph glyph-name="Lcaron" unicode="&#x13d;" horiz-adv-x="711" 
d="M244 1731l55 -43l-43 -193l8 -410v-206q0 -326 -55 -734v-12l27 -29h249l138 41l28 -41q0 -124 -514 -124q-55 0 -55 55h-12q110 287 110 844l-6 796q14 56 70 56zM604 1839q-101 -344 -129 -374h-11l-32 43q0 57 32 110q50 303 87 303q53 -26 53 -82z" />
    <glyph glyph-name="lcaron" unicode="&#x13e;" horiz-adv-x="471" 
d="M150 1614l47 12l-11 -252l-4 -225l11 -647l-13 -277l29 -166q0 -26 -72 -84l-67 56q28 71 28 291v26l21 1221q24 45 31 45zM410 1896q-101 -344 -129 -374h-11l-32 43q0 57 32 110q50 303 87 303q53 -26 53 -82z" />
    <glyph glyph-name="Ldot" unicode="&#x13f;" horiz-adv-x="711" 
d="M244 1731l55 -43l-43 -193l8 -410v-206q0 -326 -55 -734v-12l27 -29h249l138 41l28 -41q0 -124 -514 -124q-55 0 -55 55h-12q110 287 110 844l-6 796q14 56 70 56zM444 614q72 13 90 -73q-22 -97 -75 -84q-45 22 -60 88q0 35 45 69z" />
    <glyph glyph-name="ldot" unicode="&#x140;" horiz-adv-x="643" 
d="M150 1614l47 12l-11 -252l-4 -225l11 -647l-13 -277l29 -166q0 -26 -72 -84l-67 56q28 71 28 291v26l21 1221q24 45 31 45zM430 614q72 13 90 -73q-22 -97 -75 -84q-45 22 -60 88q0 35 45 69z" />
    <glyph glyph-name="Lslash" unicode="&#x141;" horiz-adv-x="711" 
d="M244 1731l55 -43l-43 -193l8 -410v-206q0 -326 -55 -734v-12l27 -29h249l138 41l28 -41q0 -124 -514 -124q-55 0 -55 55h-12q110 287 110 844l-6 796q14 56 70 56zM500 845h13l43 -41v-41q-371 -41 -596 -96l-56 41v69z" />
    <glyph glyph-name="lslash" unicode="&#x142;" horiz-adv-x="289" 
d="M150 1614l47 12l-11 -252l-4 -225l11 -647l-13 -277l29 -166q0 -26 -72 -84l-67 56q28 71 28 291v26l21 1221q24 45 31 45zM414 897h13l43 -41v-41q-371 -41 -596 -96l-56 41v69z" />
    <glyph glyph-name="Nacute" unicode="&#x143;" horiz-adv-x="950" 
d="M752 1759q67 0 67 -137l-26 -84l8 -225l69 -1065l-14 -55l27 -166q-27 -64 -56 -70h-41q-51 0 -165 416q-338 938 -402 966q-37 0 -55 -469l14 -194l-14 -125l29 -428l-41 -55h-15q-74 0 -84 41l29 401l-14 14l14 70v580q0 165 55 249v27l-55 70v41q27 55 82 55
q61 0 235 -442q84 -162 250 -705l111 -221h12v151l-76 1043l13 192l-13 70q11 41 56 55zM338 1622l-65 60q286 248 309 258l51 -51z" />
    <glyph glyph-name="nacute" unicode="&#x144;" horiz-adv-x="637" 
d="M369 1214h12q164 0 194 -620v-250l15 -151l-15 -56l15 -125l-43 -26q-68 18 -68 96v457q0 483 -98 524h-12q-148 -76 -181 -608v-387l15 -56q-29 -82 -56 -82q-69 0 -84 56l15 372l-41 623v82l55 55q55 -20 55 -41l-14 -207l14 -14h27q0 203 195 358zM203 1378l-65 60
q286 248 309 258l51 -51z" />
    <glyph glyph-name="Ncommaaccent" unicode="&#x145;" horiz-adv-x="950" 
d="M752 1759q67 0 67 -137l-26 -84l8 -225l69 -1065l-14 -55l27 -166q-27 -64 -56 -70h-41q-51 0 -165 416q-338 938 -402 966q-37 0 -55 -469l14 -194l-14 -125l29 -428l-41 -55h-15q-74 0 -84 41l29 401l-14 14l14 70v580q0 165 55 249v27l-55 70v41q27 55 82 55
q61 0 235 -442q84 -162 250 -705l111 -221h12v151l-76 1043l13 192l-13 70q11 41 56 55zM475 -109q129 -192 -86 -389h-12q-29 0 -29 41q170 228 78 318z" />
    <glyph glyph-name="ncommaaccent" unicode="&#x146;" horiz-adv-x="637" 
d="M369 1214h12q164 0 194 -620v-250l15 -151l-15 -56l15 -125l-43 -26q-68 18 -68 96v457q0 483 -98 524h-12q-148 -76 -181 -608v-387l15 -56q-29 -82 -56 -82q-69 0 -84 56l15 372l-41 623v82l55 55q55 -20 55 -41l-14 -207l14 -14h27q0 203 195 358zM317 -109
q129 -192 -86 -389h-12q-29 0 -29 41q170 228 78 318z" />
    <glyph glyph-name="Ncaron" unicode="&#x147;" horiz-adv-x="950" 
d="M752 1759q67 0 67 -137l-26 -84l8 -225l69 -1065l-14 -55l27 -166q-27 -64 -56 -70h-41q-51 0 -165 416q-338 938 -402 966q-37 0 -55 -469l14 -194l-14 -125l29 -428l-41 -55h-15q-74 0 -84 41l29 401l-14 14l14 70v580q0 165 55 249v27l-55 70v41q27 55 82 55
q61 0 235 -442q84 -162 250 -705l111 -221h12v151l-76 1043l13 192l-13 70q11 41 56 55zM406 1591q-51 0 -203 227v60h15l55 -37q129 -90 133 -105h17q30 7 86 60q18 129 155 129l-18 -45q-154 -289 -211 -289h-29z" />
    <glyph glyph-name="ncaron" unicode="&#x148;" horiz-adv-x="637" 
d="M369 1214h12q164 0 194 -620v-250l15 -151l-15 -56l15 -125l-43 -26q-68 18 -68 96v457q0 483 -98 524h-12q-148 -76 -181 -608v-387l15 -56q-29 -82 -56 -82q-69 0 -84 56l15 372l-41 623v82l55 55q55 -20 55 -41l-14 -207l14 -14h27q0 203 195 358zM302 1287
q-51 0 -203 227v60h15l55 -37q129 -90 133 -105h17q30 7 86 60q18 129 155 129l-18 -45q-154 -289 -211 -289h-29z" />
    <glyph glyph-name="napostrophe" unicode="&#x149;" horiz-adv-x="637" 
d="M347 1265h12q164 0 194 -620v-250l15 -151l-15 -56l15 -125l-43 -26q-68 18 -68 96v457q0 483 -98 524h-12q-148 -76 -181 -608v-387l15 -56q-29 -82 -56 -82q-69 0 -84 56l15 372l-41 623v82l55 55q55 -20 55 -41l-14 -207l14 -14h27q0 203 195 358zM193 1728
q129 -192 -86 -389h-12q-29 0 -29 41q170 228 78 318z" />
    <glyph glyph-name="Omacron" unicode="&#x14c;" horiz-adv-x="809" 
d="M375 1548h14q76 0 111 -125q262 -204 262 -718q0 -519 -277 -693l-139 -12q-227 0 -303 455v166q96 774 207 774q0 43 125 153zM113 594l12 -14v-15l-12 -41q41 -442 247 -442q318 0 318 649v55q-72 596 -289 596q-182 0 -276 -788zM553 1802l41 6l2 -104
q-186 34 -461 20l7 94z" />
    <glyph glyph-name="omacron" unicode="&#x14d;" horiz-adv-x="553" 
d="M338 1079q129 0 180 -370l-14 -17v-82q-35 -637 -221 -637l-15 -12h-14q-207 47 -207 526q0 592 291 592zM131 555q31 -483 123 -483h14q117 0 152 497v195q0 186 -123 205q-166 -49 -166 -414zM464 1358l41 6l2 -104q-186 34 -461 20l7 94z" />
    <glyph glyph-name="Obreve" unicode="&#x14e;" horiz-adv-x="809" 
d="M375 1548h14q76 0 111 -125q262 -204 262 -718q0 -519 -277 -693l-139 -12q-227 0 -303 455v166q96 774 207 774q0 43 125 153zM113 594l12 -14v-15l-12 -41q41 -442 247 -442q318 0 318 649v55q-72 596 -289 596q-182 0 -276 -788zM151 1866l39 43q125 -178 183.5 -181
t207.5 208l62 -11q-240 -540 -492 -59z" />
    <glyph glyph-name="obreve" unicode="&#x14f;" horiz-adv-x="553" 
d="M338 1079q129 0 180 -370l-14 -17v-82q-35 -637 -221 -637l-15 -12h-14q-207 47 -207 526q0 592 291 592zM131 555q31 -483 123 -483h14q117 0 152 497v195q0 186 -123 205q-166 -49 -166 -414zM76 1379l39 43q125 -178 183.5 -181t207.5 208l62 -11q-240 -540 -492 -59z
" />
    <glyph glyph-name="Ohungarumlaut" unicode="&#x150;" horiz-adv-x="809" 
d="M375 1548h14q76 0 111 -125q262 -204 262 -718q0 -519 -277 -693l-139 -12q-227 0 -303 455v166q96 774 207 774q0 43 125 153zM113 594l12 -14v-15l-12 -41q41 -442 247 -442q318 0 318 649v55q-72 596 -289 596q-182 0 -276 -788zM209 1675l-58 94q203 260 207 291
l70 -74zM417 1636l-59 92q203 260 209 295l68 -74z" />
    <glyph glyph-name="ohungarumlaut" unicode="&#x151;" horiz-adv-x="553" 
d="M338 1079q129 0 180 -370l-14 -17v-82q-35 -637 -221 -637l-15 -12h-14q-207 47 -207 526q0 592 291 592zM131 555q31 -483 123 -483h14q117 0 152 497v195q0 186 -123 205q-166 -49 -166 -414zM65 1282l-58 94q203 260 207 291l70 -74zM273 1243l-59 92q203 260 209 295
l68 -74z" />
    <glyph glyph-name="OE" unicode="&#x152;" horiz-adv-x="1348" 
d="M375 1548h14q76 0 111 -125q262 -204 262 -718q0 -519 -277 -693l-139 -12q-227 0 -303 455v166q96 774 207 774q0 43 125 153zM113 594l12 -14v-15l-12 -41q41 -442 247 -442q318 0 318 649v55q-72 596 -289 596q-182 0 -276 -788zM1081 1664q70 -19 70 -43v-41
q0 -43 -320 -103l-10 -483v-70q0 -28 39 -28l264 28l12 -14v-14q0 -55 -315 -111l-55 -608v-27q0 -151 110 -151l371 151l24 -84q19 -20 -438 -178q-135 0 -178 277l68 594l-41 69q55 105 55 166l-14 350q0 138 -29 138q0 110 387 182z" />
    <glyph glyph-name="oe" unicode="&#x153;" horiz-adv-x="1096" 
d="M338 1079q129 0 180 -370l-14 -17v-82q-35 -637 -221 -637l-15 -12h-14q-207 47 -207 526q0 592 291 592zM131 555q31 -483 123 -483h14q117 0 152 497v195q0 186 -123 205q-166 -49 -166 -414zM752 1138q221 -65 221 -221v-41q0 -309 -277 -428h-94v-29q0 -248 123 -346
h43q78 0 221 221l12 -12h15q-99 -319 -277 -319q-162 0 -264 567q-22 0 -27 69q56 43 99 359q106 180 205 180zM586 626q12 -68 43 -68h84q166 78 166 318v14q-21 137 -127 137q-166 0 -166 -401z" />
    <glyph glyph-name="Racute" unicode="&#x154;" horiz-adv-x="692" 
d="M477 1567h55q123 0 123 -195q-116 -397 -387 -579v-43q254 -754 375 -830l55 -12v-55l-69 -56q-86 0 -277 510l-151 346h-43v-14l16 -233q0 -402 -72 -402h-39q-32 0 -43 70l43 137l27 995q-70 0 -70 56q56 84 56 124v111l43 41h12l98 -27zM186 1358l-12 -373v-96l27 -29
h28q316 279 316 498v69l-56 56h-12q-155 0 -291 -125zM229 1620l-65 60q286 248 309 258l51 -51z" />
    <glyph glyph-name="racute" unicode="&#x155;" horiz-adv-x="580" 
d="M446 1096h41l56 -56v-28l-29 -27l-68 14q-221 -292 -221 -553v-221l13 -153q0 -56 -68 -56v-12q-55 21 -55 41v152q-52 663 -84 663q28 84 55 84h14q56 -22 56 -98v-152h14q137 299 276 402zM176 1378l-65 60q286 248 309 258l51 -51z" />
    <glyph glyph-name="Rcommaaccent" unicode="&#x156;" horiz-adv-x="692" 
d="M477 1567h55q123 0 123 -195q-116 -397 -387 -579v-43q254 -754 375 -830l55 -12v-55l-69 -56q-86 0 -277 510l-151 346h-43v-14l16 -233q0 -402 -72 -402h-39q-32 0 -43 70l43 137l27 995q-70 0 -70 56q56 84 56 124v111l43 41h12l98 -27zM186 1358l-12 -373v-96l27 -29
h28q316 279 316 498v69l-56 56h-12q-155 0 -291 -125zM346 -109q129 -192 -86 -389h-12q-29 0 -29 41q170 228 78 318z" />
    <glyph glyph-name="rcommaaccent" unicode="&#x157;" horiz-adv-x="580" 
d="M446 1096h41l56 -56v-28l-29 -27l-68 14q-221 -292 -221 -553v-221l13 -153q0 -56 -68 -56v-12q-55 21 -55 41v152q-52 663 -84 663q28 84 55 84h14q56 -22 56 -98v-152h14q137 299 276 402zM288 -109q129 -192 -86 -389h-12q-29 0 -29 41q170 228 78 318z" />
    <glyph glyph-name="Rcaron" unicode="&#x158;" horiz-adv-x="692" 
d="M477 1567h55q123 0 123 -195q-116 -397 -387 -579v-43q254 -754 375 -830l55 -12v-55l-69 -56q-86 0 -277 510l-151 346h-43v-14l16 -233q0 -402 -72 -402h-39q-32 0 -43 70l43 137l27 995q-70 0 -70 56q56 84 56 124v111l43 41h12l98 -27zM186 1358l-12 -373v-96l27 -29
h28q316 279 316 498v69l-56 56h-12q-155 0 -291 -125zM361 1636q-51 0 -203 227v60h15l55 -37q129 -90 133 -105h17q30 7 86 60q18 129 155 129l-18 -45q-154 -289 -211 -289h-29z" />
    <glyph glyph-name="rcaron" unicode="&#x159;" horiz-adv-x="580" 
d="M446 1096h41l56 -56v-28l-29 -27l-68 14q-221 -292 -221 -553v-221l13 -153q0 -56 -68 -56v-12q-55 21 -55 41v152q-52 663 -84 663q28 84 55 84h14q56 -22 56 -98v-152h14q137 299 276 402zM251 1364q-51 0 -203 227v60h15l55 -37q129 -90 133 -105h17q30 7 86 60
q18 129 155 129l-18 -45q-154 -289 -211 -289h-29z" />
    <glyph glyph-name="Sacute" unicode="&#x15a;" horiz-adv-x="809" 
d="M586 1763q49 0 166 -96v-55h-27v-15q-111 70 -180 70h-70q-282 -158 199 -1372l14 -68q0 -276 -317 -458l-99 -27q-206 59 -206 209q16 67 40 67h29q45 -178 96 -178q318 0 361 387v68q-596 1370 -103 1456zM297 1755l-65 60q286 248 309 258l51 -51z" />
    <glyph glyph-name="sacute" unicode="&#x15b;" horiz-adv-x="532" 
d="M477 1151l15 -16v-27q-263 -186 -263 -387v-29q0 -147 236 -413l12 -56q-100 -262 -387 -262q-151 0 -151 111l165 -15h56q194 47 194 166v15q0 34 -194 317l-41 154q0 254 332 442h26zM152 1378l-65 60q286 248 309 258l51 -51z" />
    <glyph glyph-name="Scircumflex" unicode="&#x15c;" horiz-adv-x="809" 
d="M586 1763q49 0 166 -96v-55h-27v-15q-111 70 -180 70h-70q-282 -158 199 -1372l14 -68q0 -276 -317 -458l-99 -27q-206 59 -206 209q16 67 40 67h29q45 -178 96 -178q318 0 361 387v68q-596 1370 -103 1456zM545 2157h27q57 0 254 -387q-119 -51 -137 94
q-99 123 -129 127h-15q-84 -86 -190 -182l-56 -39h-12v67q205 320 258 320z" />
    <glyph glyph-name="scircumflex" unicode="&#x15d;" horiz-adv-x="532" 
d="M477 1151l15 -16v-27q-263 -186 -263 -387v-29q0 -147 236 -413l12 -56q-100 -262 -387 -262q-151 0 -151 111l165 -15h56q194 47 194 166v15q0 34 -194 317l-41 154q0 254 332 442h26zM226 1741h27q57 0 254 -387q-119 -51 -137 94q-99 123 -129 127h-15
q-84 -86 -190 -182l-56 -39h-12v67q205 320 258 320z" />
    <glyph glyph-name="Scedilla" unicode="&#x15e;" horiz-adv-x="809" 
d="M586 1763q49 0 166 -96v-55h-27v-15q-111 70 -180 70h-70q-282 -158 199 -1372l14 -68q0 -276 -317 -458l-99 -27q-206 59 -206 209q16 67 40 67h29q45 -178 96 -178q318 0 361 387v68q-596 1370 -103 1456zM353 -177v-29q0 -149 236 -413l14 -56q-100 -264 -387 -264
q-152 0 -152 111l166 -13h55q193 46 193 166v13q0 36 -193 319l-43 150z" />
    <glyph glyph-name="Scedilla" unicode="&#xf6c1;" horiz-adv-x="809" 
d="M586 1763q49 0 166 -96v-55h-27v-15q-111 70 -180 70h-70q-282 -158 199 -1372l14 -68q0 -276 -317 -458l-99 -27q-206 59 -206 209q16 67 40 67h29q45 -178 96 -178q318 0 361 387v68q-596 1370 -103 1456zM353 -177v-29q0 -149 236 -413l14 -56q-100 -264 -387 -264
q-152 0 -152 111l166 -13h55q193 46 193 166v13q0 36 -193 319l-43 150z" />
    <glyph glyph-name="scedilla" unicode="&#x15f;" horiz-adv-x="532" 
d="M477 1151l15 -16v-27q-263 -186 -263 -387v-29q0 -147 236 -413l12 -56q-100 -262 -387 -262q-151 0 -151 111l165 -15h56q194 47 194 166v15q0 34 -194 317l-41 154q0 254 332 442h26zM288 43v-29q0 -149 236 -413l14 -56q-100 -264 -387 -264q-152 0 -152 111l166 -13
h55q193 46 193 166v13q0 36 -193 319l-43 150z" />
    <glyph glyph-name="scedilla" unicode="&#xf6c2;" horiz-adv-x="532" 
d="M477 1151l15 -16v-27q-263 -186 -263 -387v-29q0 -147 236 -413l12 -56q-100 -262 -387 -262q-151 0 -151 111l165 -15h56q194 47 194 166v15q0 34 -194 317l-41 154q0 254 332 442h26zM288 43v-29q0 -149 236 -413l14 -56q-100 -264 -387 -264q-152 0 -152 111l166 -13
h55q193 46 193 166v13q0 36 -193 319l-43 150z" />
    <glyph glyph-name="Scaron" unicode="&#x160;" horiz-adv-x="809" 
d="M586 1763q49 0 166 -96v-55h-27v-15q-111 70 -180 70h-70q-282 -158 199 -1372l14 -68q0 -276 -317 -458l-99 -27q-206 59 -206 209q16 67 40 67h29q45 -178 96 -178q318 0 361 387v68q-596 1370 -103 1456zM470 1794q-51 0 -203 227v60h15l55 -37q129 -90 133 -105h17
q30 7 86 60q18 129 155 129l-18 -45q-154 -289 -211 -289h-29z" />
    <glyph glyph-name="scaron" unicode="&#x161;" horiz-adv-x="532" 
d="M477 1151l15 -16v-27q-263 -186 -263 -387v-29q0 -147 236 -413l12 -56q-100 -262 -387 -262q-151 0 -151 111l165 -15h56q194 47 194 166v15q0 34 -194 317l-41 154q0 254 332 442h26zM273 1191q-51 0 -203 227v60h15l55 -37q129 -90 133 -105h17q30 7 86 60
q18 129 155 129l-18 -45q-154 -289 -211 -289h-29z" />
    <glyph glyph-name="Tcommaaccent" unicode="&#x162;" horiz-adv-x="715" 
d="M879 1612l41 -15v-41q0 -40 -56 -40v-15l-55 15q-313 -41 -332 -70l15 -414l4 -618l12 -82l-12 -70v-151q0 -66 -70 -111q-64 27 -68 55v41q56 74 56 125v55l12 248l-12 70l8 340q-31 512 -68 512h-69l-222 -14q-69 18 -69 43v41l41 40l166 -26q166 12 221 55l84 -29z
M356 -109q129 -192 -86 -389h-12q-29 0 -29 41q170 228 78 318z" />
    <glyph glyph-name="Tcommaaccent" unicode="&#x21a;" horiz-adv-x="715" 
d="M879 1612l41 -15v-41q0 -40 -56 -40v-15l-55 15q-313 -41 -332 -70l15 -414l4 -618l12 -82l-12 -70v-151q0 -66 -70 -111q-64 27 -68 55v41q56 74 56 125v55l12 248l-12 70l8 340q-31 512 -68 512h-69l-222 -14q-69 18 -69 43v41l41 40l166 -26q166 12 221 55l84 -29z
M356 -109q129 -192 -86 -389h-12q-29 0 -29 41q170 228 78 318z" />
    <glyph glyph-name="tcommaaccent" unicode="&#x163;" horiz-adv-x="393" 
d="M168 1649l31 2l6 -99v-14q0 -317 41 -317l135 45q14 -29 27 -60q-25 -22 -11 -28l-166 -82l29 -719v-55q-4 -203 -29 -326l-65 4l-4 215v342v152q0 358 -41 358l-127 -10l-45 18l4 33l24 6h27q131 19 131 92l-29 414l15 12zM197 -109q129 -192 -86 -389h-12q-29 0 -29 41
q170 228 78 318z" />
    <glyph glyph-name="tcommaaccent" unicode="&#x21b;" horiz-adv-x="393" 
d="M168 1649l31 2l6 -99v-14q0 -317 41 -317l135 45q14 -29 27 -60q-25 -22 -11 -28l-166 -82l29 -719v-55q-4 -203 -29 -326l-65 4l-4 215v342v152q0 358 -41 358l-127 -10l-45 18l4 33l24 6h27q131 19 131 92l-29 414l15 12zM197 -109q129 -192 -86 -389h-12q-29 0 -29 41
q170 228 78 318z" />
    <glyph glyph-name="Tcaron" unicode="&#x164;" horiz-adv-x="715" 
d="M879 1612l41 -15v-41q0 -40 -56 -40v-15l-55 15q-313 -41 -332 -70l15 -414l4 -618l12 -82l-12 -70v-151q0 -66 -70 -111q-64 27 -68 55v41q56 74 56 125v55l12 248l-12 70l8 340q-31 512 -68 512h-69l-222 -14q-69 18 -69 43v41l41 40l166 -26q166 12 221 55l84 -29z
M437 1638q-51 0 -203 227v60h15l55 -37q129 -90 133 -105h17q30 7 86 60q18 129 155 129l-18 -45q-154 -289 -211 -289h-29z" />
    <glyph glyph-name="tcaron" unicode="&#x165;" horiz-adv-x="752" 
d="M168 1649l31 2l6 -99v-14q0 -317 41 -317l135 45q14 -29 27 -60q-25 -22 -11 -28l-166 -82l29 -719v-55q-4 -203 -29 -326l-65 4l-4 215v342v152q0 358 -41 358l-127 -10l-45 18l4 33l24 6h27q131 19 131 92l-29 414l15 12zM639 1550q-101 -344 -129 -374h-11l-32 43
q0 57 32 110q50 303 87 303q53 -26 53 -82z" />
    <glyph glyph-name="Utilde" unicode="&#x168;" horiz-adv-x="739" 
d="M145 1628h41l27 -29v-12q-80 -538 -80 -723v-82l12 -14l-12 -14v-68q45 -582 123 -582h14q199 0 305 775l13 165l-43 500l43 55q110 0 110 -165l-12 -375q-141 -1079 -430 -1079q-207 0 -207 983q33 665 96 665zM867 1825q-182 -234 -375 -178l-110 65q-187 217 -211 226
l-13 4q-88 22 -149 -125l-6 -45l-76 8q39 235 248 262l41 -23q168 -247 280 -280l21 -4q151 -43 326 133l20 -6l10 -13z" />
    <glyph glyph-name="utilde" unicode="&#x169;" horiz-adv-x="580" 
d="M520 1022l27 -29l-27 -110v-43l12 -111q-55 -745 -233 -745q-182 0 -264 706v82q0 105 55 123h29l41 -27l-15 -96v-137q0 -275 125 -541h29q96 39 123 524v140q0 98 -27 153q0 88 125 111zM759 1532q-182 -234 -375 -178l-110 65q-187 217 -211 226l-13 4
q-88 22 -149 -125l-6 -45l-76 8q39 235 248 262l41 -23q168 -247 280 -280l21 -4q151 -43 326 133l20 -6l10 -13z" />
    <glyph glyph-name="Umacron" unicode="&#x16a;" horiz-adv-x="739" 
d="M145 1628h41l27 -29v-12q-80 -538 -80 -723v-82l12 -14l-12 -14v-68q45 -582 123 -582h14q199 0 305 775l13 165l-43 500l43 55q110 0 110 -165l-12 -375q-141 -1079 -430 -1079q-207 0 -207 983q33 665 96 665zM547 1786l41 6l2 -104q-186 34 -461 20l7 94z" />
    <glyph glyph-name="umacron" unicode="&#x16b;" horiz-adv-x="580" 
d="M520 1022l27 -29l-27 -110v-43l12 -111q-55 -745 -233 -745q-182 0 -264 706v82q0 105 55 123h29l41 -27l-15 -96v-137q0 -275 125 -541h29q96 39 123 524v140q0 98 -27 153q0 88 125 111zM478 1358l41 6l2 -104q-186 34 -461 20l7 94z" />
    <glyph glyph-name="Ubreve" unicode="&#x16c;" horiz-adv-x="739" 
d="M145 1628h41l27 -29v-12q-80 -538 -80 -723v-82l12 -14l-12 -14v-68q45 -582 123 -582h14q199 0 305 775l13 165l-43 500l43 55q110 0 110 -165l-12 -375q-141 -1079 -430 -1079q-207 0 -207 983q33 665 96 665zM176 1847l39 43q125 -178 183.5 -181t207.5 208l62 -11
q-240 -540 -492 -59z" />
    <glyph glyph-name="ubreve" unicode="&#x16d;" horiz-adv-x="580" 
d="M520 1022l27 -29l-27 -110v-43l12 -111q-55 -745 -233 -745q-182 0 -264 706v82q0 105 55 123h29l41 -27l-15 -96v-137q0 -275 125 -541h29q96 39 123 524v140q0 98 -27 153q0 88 125 111zM52 1577l39 43q125 -178 183.5 -181t207.5 208l62 -11q-240 -540 -492 -59z" />
    <glyph glyph-name="Uring" unicode="&#x16e;" horiz-adv-x="739" 
d="M145 1628h41l27 -29v-12q-80 -538 -80 -723v-82l12 -14l-12 -14v-68q45 -582 123 -582h14q199 0 305 775l13 165l-43 500l43 55q110 0 110 -165l-12 -375q-141 -1079 -430 -1079q-207 0 -207 983q33 665 96 665zM476 2026q105 0 174 -160q0 -209 -219 -244h-10
q-193 0 -228 164v19q0 184 218 215q65 0 65 6zM259 1850v-29q0 -131 119 -170h20q158 0 185 190q0 119 -117 140l-45 8q-135 -12 -162 -139z" />
    <glyph glyph-name="uring" unicode="&#x16f;" horiz-adv-x="580" 
d="M520 1022l27 -29l-27 -110v-43l12 -111q-55 -745 -233 -745q-182 0 -264 706v82q0 105 55 123h29l41 -27l-15 -96v-137q0 -275 125 -541h29q96 39 123 524v140q0 98 -27 153q0 88 125 111zM343 1741q105 0 174 -160q0 -209 -219 -244h-10q-193 0 -228 164v19
q0 184 218 215q65 0 65 6zM126 1565v-29q0 -131 119 -170h20q158 0 185 190q0 119 -117 140l-45 8q-135 -12 -162 -139z" />
    <glyph glyph-name="Uhungarumlaut" unicode="&#x170;" horiz-adv-x="739" 
d="M145 1628h41l27 -29v-12q-80 -538 -80 -723v-82l12 -14l-12 -14v-68q45 -582 123 -582h14q199 0 305 775l13 165l-43 500l43 55q110 0 110 -165l-12 -375q-141 -1079 -430 -1079q-207 0 -207 983q33 665 96 665zM308 1649l-58 94q203 260 207 291l70 -74zM516 1610
l-59 92q203 260 209 295l68 -74z" />
    <glyph glyph-name="uhungarumlaut" unicode="&#x171;" horiz-adv-x="580" 
d="M520 1022l27 -29l-27 -110v-43l12 -111q-55 -745 -233 -745q-182 0 -264 706v82q0 105 55 123h29l41 -27l-15 -96v-137q0 -275 125 -541h29q96 39 123 524v140q0 98 -27 153q0 88 125 111zM77 1282l-58 94q203 260 207 291l70 -74zM285 1243l-59 92q203 260 209 295
l68 -74z" />
    <glyph glyph-name="Uogonek" unicode="&#x172;" horiz-adv-x="739" 
d="M145 1628h41l27 -29v-12q-80 -538 -80 -723v-82l12 -14l-12 -14v-68q45 -582 123 -582h14q199 0 305 775l13 165l-43 500l43 55q110 0 110 -165l-12 -375q-141 -1079 -430 -1079q-207 0 -207 983q33 665 96 665zM299 10l-68 -168q-26 -145 72 -92q45 0 96 103l64 -58
q-88 -155 -215 -155h-15q-84 10 -96 204q0 39 88 230z" />
    <glyph glyph-name="uogonek" unicode="&#x173;" horiz-adv-x="580" 
d="M520 1022l27 -29l-27 -110v-43l12 -111q-55 -745 -233 -745q-182 0 -264 706v82q0 105 55 123h29l41 -27l-15 -96v-137q0 -275 125 -541h29q96 39 123 524v140q0 98 -27 153q0 88 125 111zM383 10l-68 -168q-26 -145 72 -92q45 0 96 103l64 -58q-88 -155 -215 -155h-15
q-84 10 -96 204q0 39 88 230z" />
    <glyph glyph-name="Wcircumflex" unicode="&#x174;" horiz-adv-x="1087" 
d="M156 1698q47 -15 55 -56q-55 -462 -55 -690v-428l14 -192l-14 -43q10 -152 41 -152q139 203 317 926v98l-27 41q35 96 82 96q80 0 99 -96l-15 -96q60 -858 181 -858q73 0 96 497v236q0 199 -41 666l55 96q55 -14 55 -82l27 -860q-51 -705 -192 -705q-164 0 -250 801
q-37 -23 -181 -498q-157 -462 -233 -469h-29q-35 0 -41 56h-14l-14 649v166q2 897 71 897h13zM530 2048h27q57 0 254 -387q-119 -51 -137 94q-99 123 -129 127h-15q-84 -86 -190 -182l-56 -39h-12v67q205 320 258 320z" />
    <glyph glyph-name="wcircumflex" unicode="&#x175;" horiz-adv-x="956" 
d="M840 1161q43 -53 43 -125v-235q-35 -801 -209 -801q-125 0 -178 553h-27q-129 -512 -209 -512h-29v-14q-149 0 -192 553v41q14 374 82 374h16l39 -43q-39 -123 -39 -262q27 -524 94 -524q99 0 209 719l-14 166l82 26l55 -41v-69q0 -619 99 -830h12q88 0 127 649l-43 277
v14q0 84 82 84zM438 1741h27q57 0 254 -387q-119 -51 -137 94q-99 123 -129 127h-15q-84 -86 -190 -182l-56 -39h-12v67q205 320 258 320z" />
    <glyph glyph-name="Ycircumflex" unicode="&#x176;" horiz-adv-x="758" 
d="M641 1698h55l56 -56q-68 -129 -131 -884q-107 -830 -347 -830v-14q-192 0 -221 152v14h29v14l125 -84q311 0 399 1272h-12l-195 -332q-151 -192 -192 -192h-43q-60 0 -68 192v125q8 572 137 664l41 -15v-41q-81 -227 -81 -692q14 -96 40 -96q248 231 408 803zM612 2056
h27q57 0 254 -387q-119 -51 -137 94q-99 123 -129 127h-15q-84 -86 -190 -182l-56 -39h-12v67q205 320 258 320z" />
    <glyph glyph-name="ycircumflex" unicode="&#x177;" horiz-adv-x="686" 
d="M524 1022h43l56 -55q-27 -56 -27 -152v-98l-16 -359l16 -14v-14l-16 -137q0 -1010 -95 -1010h-55l-55 69q82 64 82 263q41 379 41 1065h-13q-20 -7 -194 -457q-60 -55 -125 -70q-123 0 -123 416q0 330 123 401l43 -14v-55q-72 -86 -72 -262v-84q0 -248 56 -248h16
q260 442 260 731zM304 1741h27q57 0 254 -387q-119 -51 -137 94q-99 123 -129 127h-15q-84 -86 -190 -182l-56 -39h-12v67q205 320 258 320z" />
    <glyph glyph-name="Ydieresis" unicode="&#x178;" horiz-adv-x="758" 
d="M641 1698h55l56 -56q-68 -129 -131 -884q-107 -830 -347 -830v-14q-192 0 -221 152v14h29v14l125 -84q311 0 399 1272h-12l-195 -332q-151 -192 -192 -192h-43q-60 0 -68 192v125q8 572 137 664l41 -15v-41q-81 -227 -81 -692q14 -96 40 -96q248 231 408 803zM322 1995
h41l60 -78q0 -51 -74 -96q-60 26 -86 96zM634 2005h41l59 -78q0 -51 -74 -96q-59 27 -86 96z" />
    <glyph glyph-name="Zacute" unicode="&#x179;" horiz-adv-x="922" 
d="M664 1774h41l40 -41v-15q37 -491 -540 -1552v-43h55l541 153q82 0 82 -98v-12q-27 -55 -82 -55l-99 26l-581 -137q-39 0 -82 55q524 883 582 1594l-41 14l-402 -139q-61 28 -67 55v14q0 41 221 56q0 28 332 125zM239 1671l-65 60q286 248 309 258l51 -51z" />
    <glyph glyph-name="zacute" unicode="&#x17a;" horiz-adv-x="770" 
d="M451 1274h14q55 -19 55 -123v-29q0 -239 -317 -983v-26l26 -29h41q52 0 361 139h41l41 -41v-26l-68 -72l-14 16h-41l-346 -139q-195 33 -195 96q361 744 361 955v139h-29q-39 0 -262 -139h-41l-41 55q0 33 207 123q94 80 207 84zM270 1378l-65 60q286 248 309 258l51 -51
z" />
    <glyph glyph-name="Zdotaccent" unicode="&#x17b;" horiz-adv-x="922" 
d="M664 1774h41l40 -41v-15q37 -491 -540 -1552v-43h55l541 153q82 0 82 -98v-12q-27 -55 -82 -55l-99 26l-581 -137q-39 0 -82 55q524 883 582 1594l-41 14l-402 -139q-61 28 -67 55v14q0 41 221 56q0 28 332 125zM275 1923q86 -37 94 -92v-55q-27 -74 -68 -74
q-82 0 -110 110q0 56 84 111z" />
    <glyph glyph-name="zdotaccent" unicode="&#x17c;" horiz-adv-x="770" 
d="M451 1274h14q55 -19 55 -123v-29q0 -239 -317 -983v-26l26 -29h41q52 0 361 139h41l41 -41v-26l-68 -72l-14 16h-41l-346 -139q-195 33 -195 96q361 744 361 955v139h-29q-39 0 -262 -139h-41l-41 55q0 33 207 123q94 80 207 84zM379 1620q86 -37 94 -92v-55
q-27 -74 -68 -74q-82 0 -110 110q0 56 84 111z" />
    <glyph glyph-name="Zcaron" unicode="&#x17d;" horiz-adv-x="922" 
d="M664 1774h41l40 -41v-15q37 -491 -540 -1552v-43h55l541 153q82 0 82 -98v-12q-27 -55 -82 -55l-99 26l-581 -137q-39 0 -82 55q524 883 582 1594l-41 14l-402 -139q-61 28 -67 55v14q0 41 221 56q0 28 332 125zM396 1770q-51 0 -203 227v60h15l55 -37q129 -90 133 -105
h17q30 7 86 60q18 129 155 129l-18 -45q-154 -289 -211 -289h-29z" />
    <glyph glyph-name="zcaron" unicode="&#x17e;" horiz-adv-x="770" 
d="M451 1274h14q55 -19 55 -123v-29q0 -239 -317 -983v-26l26 -29h41q52 0 361 139h41l41 -41v-26l-68 -72l-14 16h-41l-346 -139q-195 33 -195 96q361 744 361 955v139h-29q-39 0 -262 -139h-41l-41 55q0 33 207 123q94 80 207 84zM314 1318q-51 0 -203 227v60h15l55 -37
q129 -90 133 -105h17q30 7 86 60q18 129 155 129l-18 -45q-154 -289 -211 -289h-29z" />
    <glyph glyph-name="florin" unicode="&#x192;" horiz-adv-x="524" 
d="M549 1538q221 -8 221 -55v-27l-14 -14l-41 -15v-14l-15 14h-165q-222 0 -263 -401v-262h13q149 24 305 96l14 -12v-29q-14 -63 -332 -151l-22 -1055l-346 -19q-56 111 262 119l24 899l-16 41h-27q-170 0 -206 56q28 84 55 84h29l110 -29h12q31 0 27 207q53 567 375 567z
" />
    <glyph glyph-name="AEacute" unicode="&#x1fc;" horiz-adv-x="1309" 
d="M541 1700q149 -4 155 -1376l43 -443l-69 -12h-29l-41 41v512l-14 207h-13q-331 -41 -362 -140q-53 -503 -80 -509h-55l-56 55q68 526 222 1161q106 524 299 504zM256 725l68 -53q276 61 276 94v250l14 180l-34 139q-39 166 -82 166q-88 0 -242 -776zM1024 1749
q70 -19 70 -43v-41q0 -43 -320 -103l-10 -483v-70q0 -28 39 -28l264 28l12 -14v-14q0 -55 -315 -111l-55 -608v-27q0 -151 110 -151l371 151l24 -84q19 -20 -438 -178q-135 0 -178 277l68 594l-41 69q55 105 55 166l-14 350q0 138 -29 138q0 110 387 182zM668 1718l-65 60
q286 248 309 258l51 -51z" />
    <glyph glyph-name="aeacute" unicode="&#x1fd;" horiz-adv-x="1087" 
d="M420 1090h43l41 -29l-15 -205q39 -735 125 -735h27v-12q0 -76 -55 -99h-56q-55 0 -96 305h-14q-80 -471 -248 -471q-96 0 -96 293v150q0 637 233 719q39 0 111 84zM172 330v-193q0 -153 41 -153q90 0 180 718v15q-10 194 -41 194h-43q-137 0 -137 -581zM752 1163
q221 -65 221 -221v-41q0 -309 -277 -428h-94v-29q0 -248 123 -346h43q78 0 221 221l12 -12h15q-99 -319 -277 -319q-162 0 -264 567q-22 0 -27 69q56 43 99 359q106 180 205 180zM586 651q12 -68 43 -68h84q166 78 166 318v14q-21 137 -127 137q-166 0 -166 -401zM428 1378
l-65 60q286 248 309 258l51 -51z" />
    <glyph glyph-name="Oslashacute" unicode="&#x1fe;" horiz-adv-x="809" 
d="M375 1548h14q76 0 111 -125q262 -204 262 -718q0 -519 -277 -693l-139 -12q-227 0 -303 455v166q96 774 207 774q0 43 125 153zM113 594l12 -14v-15l-12 -41q41 -442 247 -442q318 0 318 649v55q-72 596 -289 596q-182 0 -276 -788zM610 1485h29v-27
q-139 -766 -332 -1300q-29 0 -29 -125l-38 -27l-72 14v56q201 401 375 1272q0 96 67 137zM207 1771l-65 60q286 248 309 258l51 -51z" />
    <glyph glyph-name="oslashacute" unicode="&#x1ff;" horiz-adv-x="553" 
d="M338 1079q129 0 180 -370l-14 -17v-82q-35 -637 -221 -637l-15 -12h-14q-207 47 -207 526q0 592 291 592zM131 555q31 -483 123 -483h14q117 0 152 497v195q0 186 -123 205q-166 -49 -166 -414zM447 1250h29v-27q-139 -766 -332 -1300q-29 0 -29 -125l-38 -27l-72 14v56
q201 401 375 1272q0 96 67 137zM163 1378l-65 60q286 248 309 258l51 -51z" />
    <glyph glyph-name="Scommaaccent" unicode="&#x218;" horiz-adv-x="809" 
d="M586 1763q49 0 166 -96v-55h-27v-15q-111 70 -180 70h-70q-282 -158 199 -1372l14 -68q0 -276 -317 -458l-99 -27q-206 59 -206 209q16 67 40 67h29q45 -178 96 -178q318 0 361 387v68q-596 1370 -103 1456zM493 -389q129 -192 -86 -389h-12q-29 0 -29 41q170 228 78 318
z" />
    <glyph glyph-name="scommaaccent" unicode="&#x219;" horiz-adv-x="532" 
d="M477 1151l15 -16v-27q-263 -186 -263 -387v-29q0 -147 236 -413l12 -56q-100 -262 -387 -262q-151 0 -151 111l165 -15h56q194 47 194 166v15q0 34 -194 317l-41 154q0 254 332 442h26zM264 -109q129 -192 -86 -389h-12q-29 0 -29 41q170 228 78 318z" />
    <glyph glyph-name="circumflex" unicode="&#x2c6;" horiz-adv-x="981" 
d="M393 1741h27q57 0 254 -387q-119 -51 -137 94q-99 123 -129 127h-15q-84 -86 -190 -182l-56 -39h-12v67q205 320 258 320z" />
    <glyph glyph-name="caron" unicode="&#x2c7;" horiz-adv-x="1573" 
d="M692 1364q-51 0 -203 227v60h15l55 -37q129 -90 133 -105h17q30 7 86 60q18 129 155 129l-18 -45q-154 -289 -211 -289h-29z" />
    <glyph glyph-name="breve" unicode="&#x2d8;" horiz-adv-x="696" 
d="M98 1577l39 43q125 -178 183.5 -181t207.5 208l62 -11q-240 -540 -492 -59z" />
    <glyph glyph-name="dotaccent" unicode="&#x2d9;" horiz-adv-x="293" 
d="M119 1620q86 -37 94 -92v-55q-27 -74 -68 -74q-82 0 -110 110q0 56 84 111z" />
    <glyph glyph-name="ring" unicode="&#x2da;" horiz-adv-x="1573" 
d="M772 1741q105 0 174 -160q0 -209 -219 -244h-10q-193 0 -228 164v19q0 184 218 215q65 0 65 6zM555 1565v-29q0 -131 119 -170h20q158 0 185 190q0 119 -117 140l-45 8q-135 -12 -162 -139z" />
    <glyph glyph-name="ogonek" unicode="&#x2db;" horiz-adv-x="410" 
d="M213 10l-68 -168q-26 -145 72 -92q45 0 96 103l64 -58q-88 -155 -215 -155h-15q-84 10 -96 204q0 39 88 230z" />
    <glyph glyph-name="tilde" unicode="&#x2dc;" horiz-adv-x="1251" 
d="M1071 1532q-182 -234 -375 -178l-110 65q-187 217 -211 226l-13 4q-88 22 -149 -125l-6 -45l-76 8q39 235 248 262l41 -23q168 -247 280 -280l21 -4q151 -43 326 133l20 -6l10 -13z" />
    <glyph glyph-name="hungarumlaut" unicode="&#x2dd;" horiz-adv-x="762" 
d="M154 1282l-58 94q203 260 207 291l70 -74zM362 1243l-59 92q203 260 209 295l68 -74z" />
    <glyph glyph-name="Wgrave" unicode="&#x1e80;" horiz-adv-x="1087" 
d="M156 1698q47 -15 55 -56q-55 -462 -55 -690v-428l14 -192l-14 -43q10 -152 41 -152q139 203 317 926v98l-27 41q35 96 82 96q80 0 99 -96l-15 -96q60 -858 181 -858q73 0 96 497v236q0 199 -41 666l55 96q55 -14 55 -82l27 -860q-51 -705 -192 -705q-164 0 -250 801
q-37 -23 -181 -498q-157 -462 -233 -469h-29q-35 0 -41 56h-14l-14 649v166q2 897 71 897h13zM270 1933q70 49 500 -168l-111 -88l-413 178z" />
    <glyph glyph-name="wgrave" unicode="&#x1e81;" horiz-adv-x="956" 
d="M840 1161q43 -53 43 -125v-235q-35 -801 -209 -801q-125 0 -178 553h-27q-129 -512 -209 -512h-29v-14q-149 0 -192 553v41q14 374 82 374h16l39 -43q-39 -123 -39 -262q27 -524 94 -524q99 0 209 719l-14 166l82 26l55 -41v-69q0 -619 99 -830h12q88 0 127 649l-43 277
v14q0 84 82 84zM239 1487q70 49 500 -168l-111 -88l-413 178z" />
    <glyph glyph-name="Wacute" unicode="&#x1e82;" horiz-adv-x="1087" 
d="M156 1698q47 -15 55 -56q-55 -462 -55 -690v-428l14 -192l-14 -43q10 -152 41 -152q139 203 317 926v98l-27 41q35 96 82 96q80 0 99 -96l-15 -96q60 -858 181 -858q73 0 96 497v236q0 199 -41 666l55 96q55 -14 55 -82l27 -860q-51 -705 -192 -705q-164 0 -250 801
q-37 -23 -181 -498q-157 -462 -233 -469h-29q-35 0 -41 56h-14l-14 649v166q2 897 71 897h13zM405 1689l-65 60q286 248 309 258l51 -51z" />
    <glyph glyph-name="wacute" unicode="&#x1e83;" horiz-adv-x="956" 
d="M840 1161q43 -53 43 -125v-235q-35 -801 -209 -801q-125 0 -178 553h-27q-129 -512 -209 -512h-29v-14q-149 0 -192 553v41q14 374 82 374h16l39 -43q-39 -123 -39 -262q27 -524 94 -524q99 0 209 719l-14 166l82 26l55 -41v-69q0 -619 99 -830h12q88 0 127 649l-43 277
v14q0 84 82 84zM362 1378l-65 60q286 248 309 258l51 -51z" />
    <glyph glyph-name="Wdieresis" unicode="&#x1e84;" horiz-adv-x="1087" 
d="M156 1698q47 -15 55 -56q-55 -462 -55 -690v-428l14 -192l-14 -43q10 -152 41 -152q139 203 317 926v98l-27 41q35 96 82 96q80 0 99 -96l-15 -96q60 -858 181 -858q73 0 96 497v236q0 199 -41 666l55 96q55 -14 55 -82l27 -860q-51 -705 -192 -705q-164 0 -250 801
q-37 -23 -181 -498q-157 -462 -233 -469h-29q-35 0 -41 56h-14l-14 649v166q2 897 71 897h13zM330 1811h41l60 -78q0 -51 -74 -96q-60 26 -86 96zM642 1821h41l59 -78q0 -51 -74 -96q-59 27 -86 96z" />
    <glyph glyph-name="wdieresis" unicode="&#x1e85;" horiz-adv-x="956" 
d="M840 1161q43 -53 43 -125v-235q-35 -801 -209 -801q-125 0 -178 553h-27q-129 -512 -209 -512h-29v-14q-149 0 -192 553v41q14 374 82 374h16l39 -43q-39 -123 -39 -262q27 -524 94 -524q99 0 209 719l-14 166l82 26l55 -41v-69q0 -619 99 -830h12q88 0 127 649l-43 277
v14q0 84 82 84zM304 1655h41l60 -78q0 -51 -74 -96q-60 26 -86 96zM616 1665h41l59 -78q0 -51 -74 -96q-59 27 -86 96z" />
    <glyph glyph-name="Ygrave" unicode="&#x1ef2;" horiz-adv-x="758" 
d="M641 1698h55l56 -56q-68 -129 -131 -884q-107 -830 -347 -830v-14q-192 0 -221 152v14h29v14l125 -84q311 0 399 1272h-12l-195 -332q-151 -192 -192 -192h-43q-60 0 -68 192v125q8 572 137 664l41 -15v-41q-81 -227 -81 -692q14 -96 40 -96q248 231 408 803zM126 1925
q70 49 500 -168l-111 -88l-413 178z" />
    <glyph glyph-name="ygrave" unicode="&#x1ef3;" horiz-adv-x="686" 
d="M524 1022h43l56 -55q-27 -56 -27 -152v-98l-16 -359l16 -14v-14l-16 -137q0 -1010 -95 -1010h-55l-55 69q82 64 82 263q41 379 41 1065h-13q-20 -7 -194 -457q-60 -55 -125 -70q-123 0 -123 416q0 330 123 401l43 -14v-55q-72 -86 -72 -262v-84q0 -248 56 -248h16
q260 442 260 731zM107 1487q70 49 500 -168l-111 -88l-413 178z" />
    <glyph glyph-name="endash" unicode="&#x2013;" horiz-adv-x="618" 
d="M512 813l41 6l4 -106q-188 35 -461 20l4 96z" />
    <glyph glyph-name="emdash" unicode="&#x2014;" horiz-adv-x="827" 
d="M819 786h12l43 -41v-40q-524 8 -729 -27l-55 41v69z" />
    <glyph glyph-name="quoteleft" unicode="&#x2018;" horiz-adv-x="358" 
d="M246 1550q-101 -344 -129 -374h-11l-32 43q0 57 32 110q50 303 87 303q53 -26 53 -82z" />
    <glyph glyph-name="quoteright" unicode="&#x2019;" horiz-adv-x="358" 
d="M246 1550q-101 -344 -129 -374h-11l-32 43q0 57 32 110q50 303 87 303q53 -26 53 -82z" />
    <glyph glyph-name="quotesinglbase" unicode="&#x201a;" horiz-adv-x="358" 
d="M281 223q-101 -344 -129 -375h-11l-32 43q0 58 32 111q49 303 86 303q54 -26 54 -82z" />
    <glyph glyph-name="quotedblleft" unicode="&#x201c;" horiz-adv-x="670" 
d="M174 1704q74 0 94 -55q-39 -359 -67 -359h-27q-43 0 -43 289v43q8 82 43 82zM451 1622q55 -20 55 -43q-72 -147 -84 -373l-14 -14h-13q-55 0 -55 166q27 264 111 264z" />
    <glyph glyph-name="quotedblright" unicode="&#x201d;" horiz-adv-x="670" 
d="M174 1704q74 0 94 -55q-39 -359 -67 -359h-27q-43 0 -43 289v43q8 82 43 82zM451 1622q55 -20 55 -43q-72 -147 -84 -373l-14 -14h-13q-55 0 -55 166q27 264 111 264z" />
    <glyph glyph-name="quotedblbase" unicode="&#x201e;" horiz-adv-x="670" 
d="M172 375q76 0 96 -56q-41 -360 -69 -360h-27q-41 0 -41 291v41q6 84 41 84zM449 291q55 -21 55 -41q-70 -148 -84 -373l-12 -14h-15q-55 0 -55 166q27 262 111 262z" />
    <glyph glyph-name="dagger" unicode="&#x2020;" horiz-adv-x="1049" 
d="M821 1305h15l41 -41v-41q-170 -19 -310 -41l13 -680l-15 -277l29 -166q0 -26 -70 -84l-69 56q28 71 28 291v26l2 821q-114 -20 -202 -43l-56 41v70l258 29l2 532q25 47 31 47l47 10l4 -339l-4 -228v-12z" />
    <glyph glyph-name="daggerdbl" unicode="&#x2021;" horiz-adv-x="1049" 
d="M791 1323h14l41 -43v-39q-144 -16 -266 -35l2 -139l233 29h12l43 -43v-41q-159 -19 -290 -39l-5 -80l19 -834q0 -26 -70 -84l-69 56q28 69 37 927q-121 -20 -218 -45l-55 43v68l273 33l-3 133q-133 -21 -237 -47l-55 43v67l292 35l-2 510q25 47 31 47l47 10l4 -339
l-4 -218z" />
    <glyph glyph-name="bullet" unicode="&#x2022;" horiz-adv-x="414" 
d="M197 696q129 23 163 -121q-43 -157 -135 -137q-84 37 -110 148q0 55 82 110z" />
    <glyph glyph-name="ellipsis" unicode="&#x2026;" horiz-adv-x="1573" 
d="M242 174h43l57 -78q0 -51 -74 -96q-57 27 -86 96zM764 174h45l59 -78q0 -51 -73 -96q-62 27 -88 96zM1290 174h43l58 -78q0 -51 -74 -96q-57 27 -86 96z" />
    <glyph glyph-name="guilsinglleft" unicode="&#x2039;" horiz-adv-x="821" 
d="M643 1044q55 -12 55 -55q0 -24 -358 -303l-14 -70l372 -247v-43l-41 -41q-39 0 -331 207q-39 28 -181 43l-26 55q0 67 137 110q80 119 387 344z" />
    <glyph glyph-name="guilsinglright" unicode="&#x203a;" horiz-adv-x="1102" 
d="M133 1243q41 0 234 -205q319 -139 319 -264q0 -67 -319 -317q0 -31 -97 -70l-96 27v55q0 47 180 98q207 150 207 234l-483 332v55q0 37 55 43v12z" />
    <glyph glyph-name="fraction" unicode="&#x2044;" horiz-adv-x="713" 
d="M563 1485h29v-27q-139 -766 -332 -1300q-29 0 -29 -125l-38 -27l-72 14v56q201 401 375 1272q0 96 67 137z" />
    <glyph glyph-name="fraction" unicode="&#x2215;" horiz-adv-x="713" 
d="M563 1485h29v-27q-139 -766 -332 -1300q-29 0 -29 -125l-38 -27l-72 14v56q201 401 375 1272q0 96 67 137z" />
    <glyph glyph-name="Euro" unicode="&#x20ac;" horiz-adv-x="1135" 
d="M967 1851q82 -26 82 -55v-27q0 -28 -125 -28q-336 -119 -422 -398q-166 -428 -166 -815v-14q24 -414 192 -414l41 -14l303 37q78 35 114 -38t-361 -110q-234 0 -373 347l-14 137q0 598 346 1245q272 147 383 147zM651 1096h15l41 -41v-41q-371 -43 -594 -99l-56 43v68z
M674 868h14l41 -43v-41q-371 -41 -594 -96l-55 41v70z" />
    <glyph glyph-name="trademark" unicode="&#x2122;" horiz-adv-x="1700" 
d="M1468 1733q84 -33 84 -99l97 -1437v-97q0 -71 -41 -82h-29l-41 27l14 207v43q0 598 -84 1063h-14q-82 -260 -178 -912l-84 -40q-78 0 -96 358q-152 461 -195 498q-6 -2 -12 -2l12 -205v-250q0 -871 -82 -871h-41l-14 70l55 567h-14l14 13v180q0 309 -10 493
q-309 -40 -328 -69l15 -414v-360l12 -82l-12 -70v-151q0 -66 -70 -111q-64 27 -68 55v41q56 74 56 125v55l12 248l-12 70l12 82q-31 512 -68 512h-71l-221 -14q-68 18 -68 43v40l41 41l166 -26q166 12 221 55l82 -29l295 43q-8 134 -25 170q25 64 56 68h40q70 -4 166 -414
q70 -131 152 -471h41l180 844v41l-14 84q0 55 69 55v15z" />
    <glyph glyph-name="minus" unicode="&#x2212;" horiz-adv-x="618" 
d="M512 813l41 6l4 -106q-188 35 -461 20l4 96z" />
    <glyph glyph-name="commaaccent" unicode="&#xf6c3;" horiz-adv-x="322" 
d="M229 -109q129 -192 -86 -389h-12q-29 0 -29 41q170 228 78 318z" />
    <glyph glyph-name="fi" unicode="&#xfb01;" horiz-adv-x="811" 
d="M549 1538q221 -8 221 -55v-27l-14 -14l-41 -15v-14l-15 14h-165q-222 0 -263 -401v-262h13q149 24 305 96l14 -12v-29q-14 -63 -332 -151l13 -443v-125q0 -104 -56 -125h-12l-43 56l29 139l-13 442l-16 41h-27q-170 0 -206 56q28 84 55 84h29l110 -29h12q31 0 27 207
q53 567 375 567zM688 1290q53 0 98 -55q0 -41 -98 -96q-37 0 -68 67q27 76 68 84zM688 930l43 -56q-55 -55 -55 -303q6 -262 81 -510v-28l-40 -43h-41q-66 0 -99 651q0 289 84 289h27z" />
    <glyph glyph-name="fl" unicode="&#xfb02;" horiz-adv-x="815" 
d="M549 1538q221 -8 221 -55v-27l-14 -14l-41 -15v-14l-15 14h-165q-222 0 -263 -401v-262h13q149 24 305 96l14 -12v-29q-14 -63 -332 -151l13 -443v-125q0 -104 -56 -125h-12l-43 56l29 139l-13 442l-16 41h-27q-170 0 -206 56q28 84 55 84h29l110 -29h12q31 0 27 207
q53 567 375 567zM674 1614l47 12l-11 -252l-4 -225l11 -647l-13 -277l29 -166q0 -26 -72 -84l-67 56q28 71 28 291v26l21 1221q24 45 31 45z" />
  </font>
</defs>
</svg>
