<?xml version="1.0" encoding="utf-8"?>
<!-- Generator: Adobe Illustrator 20.1.0, SVG Export Plug-In . SVG Version: 6.00 Build 0)  -->
<svg version="1.1" id="Capa_1" xmlns="http://www.w3.org/2000/svg" xmlns:xlink="http://www.w3.org/1999/xlink" x="0px" y="0px"
	 viewBox="0 0 511.9 511.9" style="enable-background:new 0 0 511.9 511.9;" xml:space="preserve">
<style type="text/css">
	.st0{fill:#FCD830;}
	.st1{opacity:0.5;}
	.st2{fill:#FFFFFF;}
	.st3{opacity:0.2;}
	.st4{fill:#001A32;}
	.st5{fill:#FFCE54;}
	.st6{opacity:0.1;}
	.st7{opacity:0.3;}
	.st8{fill:#3A3847;}
</style>
<path class="st0" d="M443.5,44c-17.8-16-120-40-120-40c0,16-16,48-68,48c-52,0-68-32-68-48c0,0-102.1,24-120,40
	c-13.9,12.5-45,88.2-58.1,120.9l0.2,0.1L90,212.7l17.6-40.7v327.9c0,4.4,3.6,8,8,8h280c4.4,0,8-3.6,8-8V172l17.6,40.7l80.5-47.7
	C488.6,132.2,457.4,56.5,443.5,44z"/>
<g class="st1">
	<path class="st2" d="M115.6,499.9V172h-8v327.9c0,4.4,3.6,8,8,8h8C119.2,507.9,115.6,504.3,115.6,499.9z"/>
</g>
<g class="st3">
	<path d="M395.5,499.9V172h8v327.9c0,4.4-3.6,8-8,8h-8C391.9,507.9,395.5,504.3,395.5,499.9z"/>
</g>
<g class="st1">
	<path class="st2" d="M17.5,172.9C30.6,140.2,61.7,64.5,75.6,52c15.1-13.6,91-32.9,113.6-38.4c-1.1-3.5-1.6-6.8-1.6-9.5
		c0,0-102.1,24-120,40c-13.9,12.5-45,88.2-58.1,120.9c-3.7,9.2-5.9,15-5.9,15l9,5.4C13.6,182.8,15.3,178.5,17.5,172.9z"/>
</g>
<path class="st4" d="M90,212.7l-6.4,14.8L3.6,180c0,0,2.2-5.8,5.9-15l0.2,0.1L90,212.7z"/>
<path class="st5" d="M187.6,4h136c0,16-16,48-68,48S187.6,20,187.6,4z"/>
<g class="st6">
	<path d="M187.6,4h136c0,16-16,48-68,48S187.6,20,187.6,4z"/>
</g>
<g class="st3">
	<path d="M255.6,44c-44.3,0-62.4-23.2-66.8-40h-1.2c0,16,16,48,68,48c52,0,68-32,68-48h-1.2C318,20.8,299.9,44,255.6,44z"/>
</g>
<path class="st4" d="M507.5,180l-80,47.5l-6.4-14.8l80.5-47.7C505.3,174.1,507.5,180,507.5,180z"/>
<g class="st7">
	<path class="st2" d="M17.5,172.9c0.3-0.8,0.7-1.8,1.1-2.7L9.8,165l-0.2-0.1c-3.7,9.2-5.9,15-5.9,15l9,5.4
		C13.6,182.8,15.3,178.5,17.5,172.9z"/>
</g>
<circle class="st4" cx="256.8" cy="200.2" r="111.1"/>
<g class="st3">
	<path d="M315.5,220c0,38.4-30.1,69.7-68,71.8c1.3,0.1,2.6,0.2,4,0.2c39.8,0,72-32.2,72-72c0-39.8-32.2-72-72-72
		c-1.4,0-2.7,0.1-4,0.2C285.4,150.3,315.5,181.6,315.5,220z"/>
</g>
<g class="st3">
	<path d="M494.4,172.9c-13-32.7-44.1-108.5-58.1-120.9c-15.1-13.6-91-32.9-113.6-38.4c1.1-3.5,1.6-6.8,1.6-9.5c0,0,102.1,24,120,40
		c13.9,12.5,45,88.2,58.1,120.9c3.7,9.2,5.9,15,5.9,15l-9,5.4C498.3,182.8,496.6,178.5,494.4,172.9z"/>
</g>
<path class="st8" d="M307.9,8H204c-2.2,0-4-1.8-4-4c0-2.2,1.8-4,4-4h104c2.2,0,4,1.8,4,4C311.9,6.2,310.2,8,307.9,8z"/>
<path class="st8" d="M256,56c-52.4,0-72-31.9-72-52c0-2.2,1.8-4,4-4c2.2,0,4,1.8,4,4c0,11.4,11.8,44,64,44c52.2,0,64-32.6,64-44
	c0-2.2,1.8-4,4-4c2.2,0,4,1.8,4,4C327.9,24.1,308.4,56,256,56z"/>
<path class="st8" d="M403.9,503.9c-2.2,0-4-1.8-4-4V172c0-2.2,1.8-4,4-4s4,1.8,4,4v327.9C407.9,502.1,406.1,503.9,403.9,503.9z"/>
<path class="st8" d="M507.9,184c-1.6,0-3.1-1-3.7-2.6C491.4,148.3,455.3,59.6,441.3,47c-14-12.6-90.1-32.5-118.2-39.1
	c-2.1-0.5-3.5-2.7-3-4.8c0.5-2.1,2.6-3.5,4.8-3c4.2,1,103.4,24.4,121.7,40.9c18.3,16.5,63.2,132.6,65.1,137.5
	c0.8,2.1-0.2,4.4-2.3,5.2C508.9,183.9,508.4,184,507.9,184z"/>
<path class="st8" d="M427.9,231.5c-1.4,0-2.7-0.7-3.4-2c-1.1-1.9-0.5-4.4,1.4-5.5l80-47.5c1.9-1.1,4.4-0.5,5.5,1.4
	c1.1,1.9,0.5,4.4-1.4,5.5l-80,47.5C429.3,231.3,428.6,231.5,427.9,231.5z"/>
<path class="st8" d="M427.9,231.5c-1.5,0-3-0.9-3.7-2.4l-24-55.5c-0.9-2,0.1-4.4,2.1-5.3c2-0.9,4.4,0.1,5.3,2.1l24,55.5
	c0.9,2-0.1,4.4-2.1,5.3C429,231.4,428.5,231.5,427.9,231.5z"/>
<path class="st8" d="M395.9,511.9c-2.2,0-4-1.8-4-4c0-2.2,1.8-4,4-4c2.2,0,4-1.8,4-4c0-2.2,1.8-4,4-4s4,1.8,4,4
	C407.9,506.5,402.5,511.9,395.9,511.9z"/>
<path class="st8" d="M108,503.9c-2.2,0-4-1.8-4-4V172c0-2.2,1.8-4,4-4s4,1.8,4,4v327.9C112,502.1,110.2,503.9,108,503.9z"/>
<path class="st8" d="M4,184c-0.5,0-1-0.1-1.4-0.3c-2.1-0.8-3.1-3.1-2.3-5.2C2.2,173.6,47,57.5,65.3,41
	C83.7,24.5,182.8,1.1,187.1,0.1c2.2-0.5,4.3,0.8,4.8,3c0.5,2.1-0.8,4.3-3,4.8C160.7,14.5,84.7,34.4,70.7,47
	c-14,12.6-50.2,101.3-62.9,134.4C7.1,183,5.6,184,4,184z"/>
<path class="st8" d="M84,231.5c-0.7,0-1.4-0.2-2-0.6L2,183.4c-1.9-1.1-2.5-3.6-1.4-5.5c1.1-1.9,3.6-2.5,5.5-1.4L86,224
	c1.9,1.1,2.5,3.6,1.4,5.5C86.7,230.8,85.3,231.5,84,231.5z"/>
<path class="st8" d="M84,231.5c-0.5,0-1.1-0.1-1.6-0.3c-2-0.9-3-3.2-2.1-5.3l24-55.5c0.9-2,3.2-3,5.3-2.1c2,0.9,3,3.2,2.1,5.3
	l-24,55.5C87,230.6,85.5,231.5,84,231.5z"/>
<path class="st8" d="M116,511.9c-6.6,0-12-5.4-12-12c0-2.2,1.8-4,4-4s4,1.8,4,4c0,2.2,1.8,4,4,4c2.2,0,4,1.8,4,4
	C120,510.1,118.2,511.9,116,511.9z"/>
<path class="st8" d="M395.9,511.9H116c-2.2,0-4-1.8-4-4c0-2.2,1.8-4,4-4h279.9c2.2,0,4,1.8,4,4C399.9,510.1,398.1,511.9,395.9,511.9
	z"/>
<path class="st8" d="M387.9,495.9H124c-2.2,0-4-1.8-4-4c0-2.2,1.8-4,4-4h264c2.2,0,4,1.8,4,4C391.9,494.1,390.1,495.9,387.9,495.9z"
	/>
<path class="st8" d="M90.4,216.7c-0.7,0-1.4-0.2-2-0.6L8.1,168.5c-1.9-1.1-2.5-3.6-1.4-5.5c1.1-1.9,3.6-2.5,5.5-1.4l80.2,47.6
	c1.9,1.1,2.5,3.6,1.4,5.5C93.1,216,91.8,216.7,90.4,216.7z"/>
<path class="st8" d="M421.5,216.7c-1.4,0-2.7-0.7-3.4-2c-1.1-1.9-0.5-4.4,1.4-5.5l80.4-47.7c1.9-1.1,4.4-0.5,5.5,1.4
	c1.1,1.9,0.5,4.4-1.4,5.5l-80.4,47.7C422.9,216.5,422.2,216.7,421.5,216.7z"/>
<path class="st8" d="M268,24h-24c-2.2,0-4-1.8-4-4c0-2.2,1.8-4,4-4h24c2.2,0,4,1.8,4,4C272,22.2,270.2,24,268,24z"/>
<path class="st2" d="M256.4,169.9c4.9-11.5,15.9-19.5,28.8-19.5c17.4,0,29.9,14.9,31.5,32.6c0,0,0.8,4.4-1,12.3
	c-2.5,10.8-8.5,20.4-16.6,27.7L256.4,261l-42-38.1c-8.1-7.3-14-16.9-16.6-27.7c-1.9-7.9-1-12.3-1-12.3c1.6-17.7,14.1-32.6,31.5-32.6
	C241.2,150.3,251.6,158.4,256.4,169.9z"/>
</svg>
